<svg height="1080pt" viewBox="0 0 1920 1080" width="1920pt" xmlns="http://www.w3.org/2000/svg" xmlns:xlink="http://www.w3.org/1999/xlink"><symbol id="a" overflow="visible"><path d="m2.28125-21.421875h8.875c1.644531 0 3.066406.28125 4.265625.84375 1.195313.5625 2.175781 1.328125 2.9375 2.296875.757813.96875 1.320313 2.105469 1.6875 3.40625.375 1.292969.5625 2.683594.5625 4.171875 0 1.480469-.1875 2.871094-.5625 4.171875-.367187 1.292969-.929687 2.421875-1.6875 3.390625-.761719.96875-1.742187 1.734375-2.9375 2.296875-1.199219.5625-2.621094.84375-4.265625.84375h-8.875zm3.75 18.359375h3.6875c1.457031 0 2.648438-.191406 3.578125-.578125.9375-.394531 1.671875-.9375 2.203125-1.625s.890625-1.492187 1.078125-2.421875c.1875-.9375.28125-1.941406.28125-3.015625 0-1.082031-.09375-2.085937-.28125-3.015625-.1875-.9375-.546875-1.75-1.078125-2.4375s-1.265625-1.222656-2.203125-1.609375c-.929687-.394531-2.121094-.59375-3.578125-.59375h-3.6875zm0 0"/></symbol><symbol id="b" overflow="visible"><path d="m14.796875-3.453125c0 .429687.050781.730469.15625.90625.113281.179687.328125.265625.640625.265625h.359375c.144531 0 .304687-.019531.484375-.0625v2.375c-.117188.0390625-.273438.082031-.46875.125-.1875.050781-.382812.097656-.578125.140625-.199219.039063-.402344.070313-.609375.09375-.199219.019531-.367188.03125-.5.03125-.699219 0-1.28125-.140625-1.75-.421875-.460938-.28125-.757812-.769531-.890625-1.46875-.679687.65625-1.511719 1.136719-2.5 1.4375-.992187.300781-1.949219.453125-2.875.453125-.699219 0-1.371094-.101563-2.015625-.296875-.636719-.1875-1.199219-.460938-1.6875-.828125-.492188-.375-.882812-.84375-1.171875-1.40625-.292969-.570313-.4375-1.238281-.4375-2 0-.957031.175781-1.734375.53125-2.328125.351563-.601562.8125-1.078125 1.375-1.421875.570313-.34375 1.210937-.585937 1.921875-.734375.707031-.144531 1.425781-.257812 2.15625-.34375.613281-.125 1.203125-.207031 1.765625-.25.5625-.050781 1.054687-.132812 1.484375-.25.425781-.125.765625-.3125 1.015625-.5625s.375-.625.375-1.125c0-.445312-.105469-.804688-.3125-1.078125-.210937-.28125-.46875-.492187-.78125-.640625-.3125-.15625-.664063-.257812-1.046875-.3125-.375-.050781-.730469-.078125-1.0625-.078125-.960938 0-1.75.203125-2.375.609375-.625.398438-.976562 1.015625-1.046875 1.859375h-3.421875c.0625-1 .300781-1.828125.71875-2.484375.414062-.664062.945312-1.195312 1.59375-1.59375.65625-.40625 1.394531-.6875 2.21875-.84375.820312-.164062 1.660156-.25 2.515625-.25.757813 0 1.507813.085938 2.25.25.738281.15625 1.398437.417969 1.984375.78125.59375.355469 1.070312.820312 1.4375 1.390625.363281.574219.546875 1.265625.546875 2.078125zm-3.421875-4.3125c-.523438.335937-1.164062.539063-1.921875.609375-.761719.074219-1.523437.179688-2.28125.3125-.367187.0625-.71875.152344-1.0625.265625-.335937.105469-.632813.257813-.890625.453125-.261719.1875-.46875.4375-.625.75-.148438.304688-.21875.671875-.21875 1.109375 0 .386719.109375.710937.328125.96875.226563.261719.492187.46875.796875.625.3125.148437.648438.25 1.015625.3125.375.054687.710937.078125 1.015625.078125.375 0 .78125-.046875 1.21875-.140625.445312-.101563.863281-.273437 1.25-.515625.394531-.238281.722656-.539062.984375-.90625.257813-.375.390625-.832031.390625-1.375zm0 0"/></symbol><symbol id="c" overflow="visible"><path d="m.234375-15.515625h2.578125v-4.640625h3.421875v4.640625h3.09375v2.5625h-3.09375v8.265625c0 .367188.015625.679688.046875.9375.03125.261719.097656.484375.203125.671875.113281.179687.28125.3125.5.40625.21875.085937.519531.125.90625.125.238281 0 .476563-.003906.71875-.015625.238281-.007812.476563-.046875.71875-.109375v2.640625c-.375.0390625-.746094.0820312-1.109375.125-.355469.039062-.726562.0625-1.109375.0625-.898437 0-1.621094-.0859375-2.171875-.25-.554688-.175781-.984375-.425781-1.296875-.75-.304687-.332031-.511719-.75-.625-1.25-.117187-.5-.183594-1.070312-.203125-1.71875v-9.140625h-2.578125zm0 0"/></symbol><symbol id="d" overflow="visible"/><symbol id="e" overflow="visible"><path d="m4.734375-7.140625c0 .824219.140625 1.527344.421875 2.109375.28125.574219.671875 1.046875 1.171875 1.421875.5.367187 1.070313.636719 1.71875.8125.65625.167969 1.363281.25 2.125.25.820313 0 1.519531-.09375 2.09375-.28125.582031-.195313 1.050781-.441406 1.40625-.734375.363281-.300781.625-.644531.78125-1.03125.164063-.394531.25-.796875.25-1.203125 0-.8125-.1875-1.410156-.5625-1.796875-.367187-.394531-.765625-.675781-1.203125-.84375-.761719-.269531-1.648438-.53125-2.65625-.78125-1.011719-.25-2.257812-.578125-3.734375-.984375-.929687-.238281-1.699219-.550781-2.3125-.9375-.605469-.394531-1.089844-.832031-1.453125-1.3125-.355469-.476563-.609375-.988281-.765625-1.53125-.148437-.539063-.21875-1.085937-.21875-1.640625 0-1.082031.222656-2.019531.671875-2.8125.457031-.789062 1.054688-1.445312 1.796875-1.96875.738281-.519531 1.578125-.90625 2.515625-1.15625s1.882812-.375 2.84375-.375c1.125 0 2.179688.148438 3.171875.4375.988281.292969 1.859375.730469 2.609375 1.3125.75.585938 1.34375 1.304688 1.78125 2.15625.4375.84375.65625 1.824219.65625 2.9375h-3.75c-.09375-1.375-.5625-2.347656-1.40625-2.921875-.835938-.570313-1.902344-.859375-3.203125-.859375-.449219 0-.902344.046875-1.359375.140625-.460938.09375-.882812.246094-1.265625.453125-.375.210938-.6875.496094-.9375.859375-.25.355469-.375.804687-.375 1.34375 0 .761719.234375 1.355469.703125 1.78125.46875.429687 1.082031.757813 1.84375.984375.082031.011719.398438.09375.953125.25.550781.148438 1.164063.3125 1.84375.5.675781.179688 1.335937.351562 1.984375.515625.65625.167969 1.125.292969 1.40625.375.695312.21875 1.304688.523437 1.828125.90625.519531.375.953125.808594 1.296875 1.296875.351562.492188.613281 1.015625.78125 1.578125.175781.5625.265625 1.125.265625 1.6875 0 1.199219-.246094 2.226563-.734375 3.078125-.492188.84375-1.136719 1.539062-1.9375 2.078125-.804688.542969-1.714844.9375-2.734375 1.1875-1.023437.25-2.058594.375-3.109375.375-1.230469 0-2.386719-.152344-3.46875-.453125-1.074219-.300781-2.011719-.757812-2.8125-1.375-.804688-.625-1.445312-1.421875-1.921875-2.390625-.480469-.96875-.730469-2.113281-.75-3.4375zm0 0"/></symbol><symbol id="f" overflow="visible"><path d="m8.90625.421875c-1.242188 0-2.34375-.203125-3.3125-.609375-.96875-.414062-1.792969-.984375-2.46875-1.703125-.667969-.71875-1.179688-1.578125-1.53125-2.578125-.34375-1-.515625-2.097656-.515625-3.296875 0-1.1875.171875-2.28125.515625-3.28125.351562-1 .863281-1.859375 1.53125-2.578125.675781-.71875 1.5-1.28125 2.46875-1.6875.96875-.414062 2.070312-.625 3.3125-.625 1.238281 0 2.34375.210938 3.3125.625.976562.40625 1.800781.96875 2.46875 1.6875.664062.71875 1.171875 1.578125 1.515625 2.578125.351563 1 .53125 2.09375.53125 3.28125 0 1.199219-.179687 2.296875-.53125 3.296875-.34375 1-.851563 1.859375-1.515625 2.578125-.667969.71875-1.492188 1.289063-2.46875 1.703125-.96875.40625-2.074219.609375-3.3125.609375zm0-2.703125c.757812 0 1.421875-.15625 1.984375-.46875.5625-.320312 1.019531-.742188 1.375-1.265625.363281-.519531.628906-1.101563.796875-1.75.164062-.65625.25-1.320313.25-2 0-.664063-.085938-1.328125-.25-1.984375-.167969-.65625-.433594-1.238281-.796875-1.75-.355469-.507812-.8125-.925781-1.375-1.25-.5625-.320312-1.226563-.484375-1.984375-.484375-.761719 0-1.421875.164063-1.984375.484375-.554687.324219-1.011719.742188-1.375 1.25-.355469.511719-.621094 1.09375-.796875 1.75-.167969.65625-.25 1.320312-.25 1.984375 0 .679687.082031 1.34375.25 2 .175781.648437.441406 1.230469.796875 1.75.363281.523437.820313.945313 1.375 1.265625.5625.3125 1.222656.46875 1.984375.46875zm0 0"/></symbol><symbol id="g" overflow="visible"><path d="m15.421875 0h-3.359375v-2.15625h-.0625c-.417969.78125-1.042969 1.40625-1.875 1.875-.835938.46875-1.679688.703125-2.53125.703125-2.042969 0-3.523438-.5039062-4.4375-1.515625-.90625-1.007812-1.359375-2.535156-1.359375-4.578125v-9.84375h3.421875v9.515625c0 1.367188.257812 2.328125.78125 2.890625.519531.554687 1.25.828125 2.1875.828125.71875 0 1.316406-.109375 1.796875-.328125.476563-.21875.867187-.507813 1.171875-.875.300781-.375.515625-.820313.640625-1.34375.132813-.519531.203125-1.082031.203125-1.6875v-9h3.421875zm0 0"/></symbol><symbol id="h" overflow="visible"><path d="m1.796875-15.515625h3.21875v3h.046875c.101562-.414063.300781-.820313.59375-1.21875.289062-.40625.640625-.769531 1.046875-1.09375.40625-.332031.859375-.597656 1.359375-.796875.5-.207031 1.007812-.3125 1.53125-.3125.40625 0 .679688.011719.828125.03125.15625.023438.3125.042969.46875.0625v3.296875c-.242187-.03125-.484375-.0625-.734375-.09375s-.496094-.046875-.734375-.046875c-.585937 0-1.132813.117188-1.640625.34375-.511719.230469-.960938.570312-1.34375 1.015625-.375.449219-.671875 1.007813-.890625 1.671875-.21875.65625-.328125 1.417969-.328125 2.28125v7.375h-3.421875zm0 0"/></symbol><symbol id="i" overflow="visible"><path d="m12.265625-10.3125c-.136719-.96875-.523437-1.695312-1.15625-2.1875-.625-.488281-1.417969-.734375-2.375-.734375-.449219 0-.921875.078125-1.421875.234375-.5.148438-.960938.429688-1.375.84375-.417969.40625-.765625.976562-1.046875 1.703125-.28125.730469-.421875 1.683594-.421875 2.859375 0 .648438.070312 1.292969.21875 1.9375.15625.636719.394531 1.203125.71875 1.703125.332031.5.757812.90625 1.28125 1.21875.519531.304687 1.148438.453125 1.890625.453125 1 0 1.820313-.304688 2.46875-.921875.65625-.625 1.0625-1.492187 1.21875-2.609375h3.421875c-.324219 2.011719-1.089844 3.554688-2.296875 4.625-1.210937 1.074219-2.8125 1.609375-4.8125 1.609375-1.21875 0-2.296875-.203125-3.234375-.609375-.929688-.414062-1.710938-.976562-2.34375-1.6875-.636719-.707031-1.121094-1.550781-1.453125-2.53125-.335937-.976562-.5-2.039062-.5-3.1875 0-1.15625.160156-2.242188.484375-3.265625.320312-1.019531.800781-1.90625 1.4375-2.65625.644531-.75 1.441406-1.335937 2.390625-1.765625.945313-.4375 2.0625-.65625 3.34375-.65625.894531 0 1.75.121094 2.5625.359375.8125.230469 1.53125.574219 2.15625 1.03125.632813.460937 1.148437 1.039063 1.546875 1.734375.394531.699219.632812 1.53125.71875 2.5zm0 0"/></symbol><symbol id="j" overflow="visible"><path d="m12.453125-9.125c-.042969-.539062-.164063-1.0625-.359375-1.5625-.1875-.5-.449219-.929688-.78125-1.296875-.324219-.375-.71875-.675781-1.1875-.90625-.46875-.226563-.996094-.34375-1.578125-.34375-.59375 0-1.136719.109375-1.625.328125-.492187.210938-.914063.5-1.265625.875-.355469.367188-.636719.796875-.84375 1.296875-.210938.5-.324219 1.039063-.34375 1.609375zm-7.984375 2.25c0 .605469.082031 1.1875.25 1.75.175781.554688.429688 1.042969.765625 1.46875.34375.417969.773437.75 1.296875 1 .519531.25 1.140625.375 1.859375.375 1 0 1.800781-.210938 2.40625-.640625.613281-.425781 1.070313-1.070313 1.375-1.9375h3.234375c-.179688.84375-.492188 1.59375-.9375 2.25-.4375.65625-.96875 1.214844-1.59375 1.671875-.617188.449219-1.308594.789062-2.078125 1.015625-.761719.226563-1.5625.34375-2.40625.34375-1.21875 0-2.304687-.199219-3.25-.59375-.9375-.40625-1.730469-.96875-2.375-1.6875-.648437-.71875-1.136719-1.578125-1.46875-2.578125-.335937-1-.5-2.097656-.5-3.296875 0-1.101563.171875-2.148437.515625-3.140625.351562-.988281.851562-1.859375 1.5-2.609375.65625-.75 1.441406-1.34375 2.359375-1.78125.925781-.445313 1.96875-.671875 3.125-.671875 1.21875 0 2.3125.257812 3.28125.765625.976563.511719 1.785156 1.1875 2.421875 2.03125.632812.84375 1.097656 1.8125 1.390625 2.90625.289063 1.085937.367187 2.203125.234375 3.359375zm0 0"/></symbol><symbol id="k" overflow="visible"><path d="m2.1875-21.421875h3.75v8.515625h9.75v-8.515625h3.75v21.421875h-3.75v-9.65625h-9.75v9.65625h-3.75zm0 0"/></symbol><symbol id="l" overflow="visible"><path d="m1.796875-15.515625h3.25v2.171875h.078125c.257812-.382812.539062-.734375.84375-1.046875.300781-.320313.632812-.59375 1-.8125.375-.226563.800781-.40625 1.28125-.53125.476562-.132813 1.03125-.203125 1.65625-.203125.9375 0 1.804688.214844 2.609375.640625.8125.417969 1.390625 1.070313 1.734375 1.953125.582031-.800781 1.253906-1.429688 2.015625-1.890625.757813-.46875 1.707031-.703125 2.84375-.703125 1.632813 0 2.90625.402344 3.8125 1.203125.914063.804687 1.375 2.148437 1.375 4.03125v10.703125h-3.421875v-9.0625c0-.613281-.023438-1.175781-.0625-1.6875-.03125-.507812-.148438-.945312-.34375-1.3125-.1875-.375-.476562-.660156-.859375-.859375-.375-.207031-.890625-.3125-1.546875-.3125-1.167969 0-2.011719.367187-2.53125 1.09375-.511719.71875-.765625 1.734375-.765625 3.046875v9.09375h-3.421875v-9.953125c0-1.082031-.199219-1.898437-.59375-2.453125-.386719-.550781-1.101562-.828125-2.140625-.828125-.4375 0-.867187.09375-1.28125.28125-.40625.179687-.765625.4375-1.078125.78125-.304688.335937-.554688.75-.75 1.25-.1875.5-.28125 1.074219-.28125 1.71875v9.203125h-3.421875zm0 0"/></symbol><symbol id="m" overflow="visible"><path d="m1.796875-15.515625h3.25v2.28125l.046875.0625c.519531-.851563 1.203125-1.523437 2.046875-2.015625.84375-.5 1.773437-.75 2.796875-.75 1.695312 0 3.035156.445312 4.015625 1.328125.976563.875 1.46875 2.195313 1.46875 3.953125v10.65625h-3.421875v-9.75c-.042969-1.21875-.304688-2.101562-.78125-2.65625-.480469-.550781-1.230469-.828125-2.25-.828125-.585938 0-1.105469.109375-1.5625.328125-.460938.210938-.851562.5-1.171875.875-.3125.367188-.5625.796875-.75 1.296875-.179687.5-.265625 1.027344-.265625 1.578125v9.15625h-3.421875zm0 0"/></symbol><symbol id="n" overflow="visible"><path d="m1.890625-21.421875h3.421875v3.234375h-3.421875zm0 5.90625h3.421875v15.515625h-3.421875zm0 0"/></symbol><symbol id="o" overflow="visible"><path d="m1.265625-15.515625h12.59375v2.40625l-8.875 10.40625h9.328125v2.703125h-13.65625v-2.40625l8.578125-10.40625h-7.96875zm0 0"/></symbol><symbol id="p" overflow="visible"><path d="m16.40625 0h-3.234375v-2.09375h-.0625c-.460937.898438-1.132813 1.542969-2.015625 1.9375-.875.382812-1.804688.578125-2.78125.578125-1.21875 0-2.289062-.214844-3.203125-.640625-.90625-.4375-1.664063-1.023438-2.265625-1.765625-.59375-.738281-1.042969-1.613281-1.34375-2.625-.304688-1.007813-.453125-2.09375-.453125-3.25 0-1.394531.1875-2.601563.5625-3.625.382813-1.019531.890625-1.859375 1.515625-2.515625.632812-.664062 1.359375-1.15625 2.171875-1.46875s1.632813-.46875 2.46875-.46875c.476563 0 .96875.046875 1.46875.140625s.976563.242187 1.4375.4375c.46875.199219.894531.453125 1.28125.765625.394531.3125.722656.679688.984375 1.09375h.046875v-7.921875h3.421875zm-11.9375-7.59375c0 .667969.082031 1.320312.25 1.953125.175781.636719.4375 1.203125.78125 1.703125.351562.5.800781.902344 1.34375 1.203125.539062.304687 1.179688.453125 1.921875.453125.757813 0 1.410156-.15625 1.953125-.46875.550781-.320312 1-.742188 1.34375-1.265625.351562-.519531.613281-1.101563.78125-1.75.175781-.65625.265625-1.320313.265625-2 0-1.71875-.386719-3.054687-1.15625-4.015625-.773437-.96875-1.820313-1.453125-3.140625-1.453125-.792969 0-1.464844.167969-2.015625.5-.554687.335937-1.007813.765625-1.359375 1.296875-.34375.523438-.59375 1.121094-.75 1.796875-.148438.667969-.21875 1.351563-.21875 2.046875zm0 0"/></symbol><symbol id="q" overflow="visible"><path d="m2.28125-21.421875h3.75v21.421875h-3.75zm0 0"/></symbol><symbol id="r" overflow="visible"><path d="m1.890625-21.421875h3.421875v21.421875h-3.421875zm0 0"/></symbol><symbol id="s" overflow="visible"><path d="m6.03125-12.453125h6.125c.894531 0 1.640625-.253906 2.234375-.765625.601563-.507812.90625-1.242188.90625-2.203125 0-1.082031-.273437-1.84375-.8125-2.28125-.53125-.4375-1.308594-.65625-2.328125-.65625h-6.125zm-3.75-8.96875h10.40625c1.914062 0 3.453125.445313 4.609375 1.328125 1.164063.875 1.75 2.203125 1.75 3.984375 0 1.085937-.265625 2.011719-.796875 2.78125-.53125.761719-1.289062 1.355469-2.265625 1.78125v.0625c1.320313.28125 2.320313.90625 3 1.875.6875.96875 1.03125 2.183594 1.03125 3.640625 0 .84375-.152344 1.632812-.453125 2.359375-.304688.730469-.777344 1.359375-1.421875 1.890625-.636719.523438-1.453125.9375-2.453125 1.25s-2.1875.46875-3.5625.46875h-9.84375zm3.75 18.359375h6.625c1.144531 0 2.03125-.289062 2.65625-.875.632812-.59375.953125-1.429688.953125-2.515625 0-1.0625-.320313-1.875-.953125-2.4375-.625-.570313-1.511719-.859375-2.65625-.859375h-6.625zm0 0"/></symbol><symbol id="t" overflow="visible"><path d="m5.796875 5.734375c-.605469-.960937-1.171875-1.949219-1.703125-2.96875-.53125-1.023437-.996094-2.09375-1.390625-3.21875-.386719-1.132813-.6875-2.332031-.90625-3.59375-.21875-1.257813-.328125-2.609375-.328125-4.046875 0-2.425781.375-4.804688 1.125-7.140625.75-2.34375 1.816406-4.578125 3.203125-6.703125h2.78125c-1.199219 2.167969-2.117187 4.386719-2.75 6.65625-.625 2.273438-.9375 4.667969-.9375 7.1875 0 2.523438.296875 4.921875.890625 7.203125.601562 2.269531 1.535156 4.476563 2.796875 6.625zm0 0"/></symbol><symbol id="u" overflow="visible"><path d="m16.140625-.8125c0 2.34375-.65625 4.085938-1.96875 5.234375-1.3125 1.15625-3.199219 1.734375-5.65625 1.734375-.78125 0-1.570313-.085938-2.359375-.25-.78125-.15625-1.5-.429688-2.15625-.8125-.648438-.375-1.195312-.875-1.640625-1.5-.4375-.617188-.695313-1.375-.765625-2.28125h3.421875c.09375.488281.257813.878906.5 1.171875.238281.300781.523437.535156.859375.703125.332031.175781.695312.285156 1.09375.328125.394531.050781.816406.078125 1.265625.078125 1.375 0 2.378906-.339844 3.015625-1.015625.644531-.679687.96875-1.65625.96875-2.9375v-2.375h-.0625c-.480469.867187-1.136719 1.539063-1.96875 2.015625-.824219.480469-1.714844.71875-2.671875.71875-1.242187 0-2.296875-.210938-3.171875-.640625-.867188-.4375-1.585938-1.03125-2.15625-1.78125-.574219-.75-.992188-1.613281-1.25-2.59375-.261719-.976563-.390625-2.023437-.390625-3.140625 0-1.039062.160156-2.03125.484375-2.96875.320312-.945312.78125-1.773438 1.375-2.484375.601562-.707031 1.335938-1.269531 2.203125-1.6875.875-.425781 1.859375-.640625 2.953125-.640625.988281 0 1.890625.210938 2.703125.625.820313.40625 1.453125 1.054688 1.890625 1.9375h.0625v-2.140625h3.421875zm-7.59375-1.890625c.757813 0 1.40625-.148437 1.9375-.453125.53125-.3125.957031-.722656 1.28125-1.234375.332031-.507813.570313-1.085937.71875-1.734375.15625-.65625.234375-1.3125.234375-1.96875 0-.664062-.085938-1.304688-.25-1.921875-.15625-.625-.402344-1.175781-.734375-1.65625-.324219-.476563-.75-.859375-1.28125-1.140625s-1.167969-.421875-1.90625-.421875c-.761719 0-1.402344.164063-1.921875.484375-.523438.324219-.945312.742188-1.265625 1.25-.3125.511719-.542969 1.089844-.6875 1.734375-.136719.648437-.203125 1.292969-.203125 1.9375 0 .636719.078125 1.261719.234375 1.875.164063.605469.410156 1.152344.734375 1.640625.332031.480469.753906.871094 1.265625 1.171875.507813.292969 1.125.4375 1.84375.4375zm0 0"/></symbol><symbol id="v" overflow="visible"><path d="m.265625-15.515625h2.546875v-1.28125c0-.976563.117188-1.769531.359375-2.375.25-.613281.570313-1.085937.96875-1.421875.394531-.332031.847656-.550781 1.359375-.65625.507812-.113281 1.046875-.171875 1.609375-.171875 1.101563 0 1.90625.074219 2.40625.21875v2.65625c-.21875-.050781-.453125-.09375-.703125-.125s-.546875-.046875-.890625-.046875c-.460937 0-.855469.109375-1.1875.328125-.335937.21875-.5.652344-.5 1.296875v1.578125h2.921875v2.5625h-2.921875v12.953125h-3.421875v-12.953125h-2.546875zm0 0"/></symbol><symbol id="w" overflow="visible"><path d="m.234375-21.421875h17.34375v3.234375h-6.8125v18.1875h-3.75v-18.1875h-6.78125zm0 0"/></symbol><symbol id="x" overflow="visible"><path d="m1.796875-21.421875h3.421875v7.953125h.0625c.414062-.695312 1.039062-1.28125 1.875-1.75.832031-.476562 1.757812-.71875 2.78125-.71875 1.695312 0 3.035156.445312 4.015625 1.328125.976563.875 1.46875 2.195313 1.46875 3.953125v10.65625h-3.421875v-9.75c-.042969-1.21875-.304688-2.101562-.78125-2.65625-.480469-.550781-1.230469-.828125-2.25-.828125-.585938 0-1.105469.109375-1.5625.328125-.460938.210938-.851562.5-1.171875.875-.3125.367188-.5625.796875-.75 1.296875-.179687.5-.265625 1.027344-.265625 1.578125v9.15625h-3.421875zm0 0"/></symbol><symbol id="y" overflow="visible"><path d="m2.546875-21.9375c.601563.96875 1.164063 1.96875 1.6875 3 .519531 1.023438.972656 2.101562 1.359375 3.234375.394531 1.125.707031 2.320313.9375 3.578125.226562 1.261719.34375 2.617188.34375 4.0625 0 2.417969-.375 4.796875-1.125 7.140625-.75 2.332031-1.820312 4.550781-3.203125 6.65625h-2.78125c1.195313-2.148437 2.109375-4.355469 2.734375-6.625.632812-2.269531.953125-4.660156.953125-7.171875 0-2.519531-.304687-4.921875-.90625-7.203125-.59375-2.28125-1.523437-4.503906-2.78125-6.671875zm0 0"/></symbol><symbol id="z" overflow="visible"><path d="m16.734375-14.609375c-.15625-.625-.375-1.191406-.65625-1.703125-.28125-.519531-.640625-.96875-1.078125-1.34375-.4375-.382812-.953125-.679688-1.546875-.890625-.59375-.21875-1.277344-.328125-2.046875-.328125-1.148438 0-2.136719.234375-2.96875.703125-.824219.460937-1.496094 1.074219-2.015625 1.84375-.523437.761719-.90625 1.636719-1.15625 2.625-.25.980469-.375 1.980469-.375 3 0 1.011719.125 2.011719.375 3 .25.980469.632813 1.855469 1.15625 2.625.519531.761719 1.191406 1.375 2.015625 1.84375.832031.460937 1.820312.6875 2.96875.6875.832031 0 1.566406-.144531 2.203125-.4375.644531-.289063 1.195313-.691406 1.65625-1.203125.457031-.507812.816406-1.101562 1.078125-1.78125.257812-.675781.429688-1.40625.515625-2.1875h3.65625c-.074219 1.28125-.351563 2.453125-.828125 3.515625-.46875 1.054687-1.105469 1.964844-1.90625 2.734375-.792969.773438-1.730469 1.371094-2.8125 1.796875-1.085938.414063-2.273438.625-3.5625.625-1.605469 0-3.042969-.296875-4.3125-.890625-1.273438-.59375-2.351562-1.394531-3.234375-2.40625-.875-1.019531-1.546875-2.210938-2.015625-3.578125-.46875-1.363281-.703125-2.8125-.703125-4.34375 0-1.519531.234375-2.957031.703125-4.3125.46875-1.363281 1.140625-2.554687 2.015625-3.578125.882813-1.019531 1.960937-1.832031 3.234375-2.4375 1.269531-.601562 2.707031-.90625 4.3125-.90625 1.195312 0 2.320312.167969 3.375.5 1.0625.335938 2 .820312 2.8125 1.453125.8125.625 1.46875 1.390625 1.96875 2.296875.5.898438.804688 1.921875.921875 3.078125zm0 0"/></symbol><symbol id="A" overflow="visible"><path d="m18.8125 0v-33.59375h-5.421875c-.1875 1.273438-.589844 2.339844-1.203125 3.203125-.605469.867187-1.351562 1.5625-2.234375 2.09375-.875.53125-1.867187.902344-2.96875 1.109375-1.105469.210938-2.25.296875-3.4375.265625v5.125h8.453125v21.796875zm0 0"/></symbol><symbol id="B" overflow="visible"><path d="m2.875-7.390625v7.390625h7.546875v-7.390625zm0 0"/></symbol><symbol id="C" overflow="visible"/><symbol id="D" overflow="visible"><path d="m26.15625-22.75h7.296875c-.21875-1.988281-.761719-3.75-1.625-5.28125-.867187-1.539062-1.964844-2.828125-3.296875-3.859375-1.324219-1.039063-2.828125-1.832031-4.515625-2.375-1.679687-.550781-3.460937-.828125-5.34375-.828125-2.625 0-4.984375.46875-7.078125 1.40625-2.09375.929688-3.867188 2.210938-5.3125 3.84375-1.4375 1.625-2.542969 3.539062-3.3125 5.734375-.761719 2.1875-1.140625 4.5625-1.140625 7.125 0 2.492187.378906 4.820313 1.140625 6.984375.769531 2.15625 1.875 4.039062 3.3125 5.640625 1.445312 1.59375 3.21875 2.851563 5.3125 3.765625 2.09375.90625 4.453125 1.359375 7.078125 1.359375 2.113281 0 4.050781-.320313 5.8125-.953125 1.757813-.644531 3.296875-1.570312 4.609375-2.78125 1.3125-1.21875 2.363281-2.691406 3.15625-4.421875.800781-1.726563 1.300781-3.664063 1.5-5.8125h-7.296875c-.292969 2.304687-1.089844 4.164063-2.390625 5.578125-1.292969 1.40625-3.089844 2.109375-5.390625 2.109375-1.699219 0-3.140625-.328125-4.328125-.984375-1.179688-.65625-2.136719-1.523438-2.875-2.609375-.730469-1.09375-1.265625-2.316406-1.609375-3.671875-.335937-1.363281-.5-2.765625-.5-4.203125 0-1.507813.164063-2.96875.5-4.375.34375-1.40625.878906-2.660156 1.609375-3.765625.738281-1.101562 1.695312-1.984375 2.875-2.640625 1.1875-.65625 2.628906-.984375 4.328125-.984375.925781 0 1.8125.152344 2.65625.453125.851563.304687 1.613281.730469 2.28125 1.28125.675781.542969 1.238281 1.171875 1.6875 1.890625.445313.71875.734375 1.511719.859375 2.375zm0 0"/></symbol><symbol id="E" overflow="visible"><path d="m8.640625-12.390625c0-.988281.09375-1.960937.28125-2.921875.195313-.957031.523437-1.800781.984375-2.53125.46875-.738281 1.082031-1.34375 1.84375-1.8125.769531-.46875 1.734375-.703125 2.890625-.703125s2.125.234375 2.90625.703125 1.398437 1.074219 1.859375 1.8125c.46875.730469.796875 1.574219.984375 2.53125.195313.960938.296875 1.933594.296875 2.921875 0 1-.101562 1.976563-.296875 2.921875-.1875.9375-.515625 1.78125-.984375 2.53125-.460938.75-1.078125 1.351562-1.859375 1.796875-.78125.449219-1.75.671875-2.90625.671875s-2.121094-.222656-2.890625-.671875c-.761719-.445313-1.375-1.046875-1.84375-1.796875-.460938-.75-.789062-1.59375-.984375-2.53125-.1875-.945312-.28125-1.921875-.28125-2.921875zm-6.8125 0c0 1.992187.300781 3.789063.90625 5.390625.601563 1.59375 1.46875 2.960938 2.59375 4.09375 1.125 1.136719 2.46875 2.011719 4.03125 2.625 1.570313.601562 3.332031.90625 5.28125.90625 1.945313 0 3.710937-.304688 5.296875-.90625 1.582031-.613281 2.9375-1.488281 4.0625-2.625 1.125-1.132812 1.988281-2.5 2.59375-4.09375.601562-1.601562.90625-3.398438.90625-5.390625 0-1.976563-.304688-3.773437-.90625-5.390625-.605469-1.613281-1.46875-2.988281-2.59375-4.125-1.125-1.132812-2.480469-2.015625-4.0625-2.640625-1.585938-.625-3.351562-.9375-5.296875-.9375-1.949219 0-3.710937.3125-5.28125.9375-1.5625.625-2.90625 1.507813-4.03125 2.640625-1.125 1.136719-1.992187 2.511719-2.59375 4.125-.605469 1.617188-.90625 3.414062-.90625 5.390625zm0 0"/></symbol><symbol id="F" overflow="visible"><path d="m2.78125-34.265625v34.265625h6.8125v-34.265625zm0 0"/></symbol><symbol id="G" overflow="visible"><path d="m19.296875-15.078125h-11.09375c.03125-.476563.132813-1.019531.3125-1.625.175781-.601563.476563-1.175781.90625-1.71875.4375-.550781 1.015625-1.007813 1.734375-1.375.71875-.375 1.625-.5625 2.71875-.5625 1.664062 0 2.90625.453125 3.71875 1.359375.8125.898438 1.378906 2.203125 1.703125 3.921875zm-11.09375 4.328125h17.90625c.125-1.914062-.039063-3.753906-.484375-5.515625-.449219-1.757813-1.179688-3.328125-2.1875-4.703125-1-1.382812-2.289062-2.484375-3.859375-3.296875-1.5625-.8125-3.402344-1.21875-5.515625-1.21875-1.886719 0-3.605469.339844-5.15625 1.015625-1.554688.667969-2.890625 1.585938-4.015625 2.75-1.117187 1.167969-1.980469 2.554688-2.59375 4.15625-.605469 1.59375-.90625 3.320312-.90625 5.171875 0 1.929687.296875 3.695313.890625 5.296875.59375 1.59375 1.429688 2.96875 2.515625 4.125 1.09375 1.148438 2.421875 2.03125 3.984375 2.65625 1.570312.625 3.332031.9375 5.28125.9375 2.8125 0 5.207031-.640625 7.1875-1.921875 1.988281-1.28125 3.46875-3.410156 4.4375-6.390625h-6c-.230469.773438-.839844 1.5-1.828125 2.1875-.992187.6875-2.179687 1.03125-3.5625 1.03125-1.917969 0-3.386719-.492188-4.40625-1.484375-1.023437-.988281-1.585937-2.585937-1.6875-4.796875zm0 0"/></symbol><symbol id="H" overflow="visible"><path d="m19.484375-16.078125h6.671875c-.09375-1.601563-.480469-2.988281-1.15625-4.15625-.667969-1.164063-1.539062-2.140625-2.609375-2.921875-1.074219-.789062-2.292969-1.375-3.65625-1.75-1.355469-.382812-2.765625-.578125-4.234375-.578125-2.023438 0-3.820312.339844-5.390625 1.015625-1.5625.667969-2.890625 1.601562-3.984375 2.796875-1.085938 1.199219-1.90625 2.625-2.46875 4.28125-.554688 1.648437-.828125 3.429687-.828125 5.34375 0 1.855469.300781 3.558594.90625 5.109375.601563 1.554688 1.445313 2.890625 2.53125 4.015625 1.09375 1.117187 2.414063 1.984375 3.96875 2.609375 1.550781.625 3.257813.9375 5.125.9375 3.289063 0 5.988281-.863281 8.09375-2.59375 2.113281-1.726562 3.394531-4.238281 3.84375-7.53125h-6.5625c-.230469 1.53125-.789063 2.757812-1.671875 3.671875-.875.90625-2.132812 1.359375-3.765625 1.359375-1.054687 0-1.949219-.238281-2.6875-.71875-.730469-.476562-1.3125-1.09375-1.75-1.84375-.429687-.75-.742187-1.585938-.9375-2.515625-.1875-.925781-.28125-1.835937-.28125-2.734375 0-.9375.09375-1.875.28125-2.8125.195313-.945312.523437-1.8125.984375-2.59375.46875-.78125 1.066406-1.421875 1.796875-1.921875.738281-.5 1.65625-.75 2.75-.75 2.90625 0 4.582031 1.429687 5.03125 4.28125zm0 0"/></symbol><symbol id="I" overflow="visible"><path d="m11.234375-24.8125v-7.4375h-6.8125v7.4375h-4.140625v4.5625h4.140625v14.640625c0 1.242187.203125 2.246094.609375 3.015625.414062.773438.984375 1.367188 1.703125 1.78125.726563.417969 1.5625.695312 2.5.828125.945313.144531 1.945313.21875 3 .21875.675781 0 1.363281-.015625 2.0625-.046875.707031-.03125 1.347656-.09375 1.921875-.1875v-5.28125c-.3125.0625-.648438.109375-1 .140625-.355469.03125-.726562.046875-1.109375.046875-1.148437 0-1.914063-.1875-2.296875-.5625-.386719-.382812-.578125-1.15625-.578125-2.3125v-12.28125h4.984375v-4.5625zm0 0"/></symbol><symbol id="J" overflow="visible"><path d="m9.59375-28.65625v-5.609375h-6.8125v5.609375zm-6.8125 3.84375v24.8125h6.8125v-24.8125zm0 0"/></symbol><symbol id="K" overflow="visible"><path d="m2.59375-24.8125v24.8125h6.8125v-13.015625c0-2.519531.414062-4.332031 1.25-5.4375.832031-1.101563 2.175781-1.65625 4.03125-1.65625 1.632812 0 2.769531.507813 3.40625 1.515625.644531 1 .96875 2.527344.96875 4.578125v14.015625h6.8125v-15.265625c0-1.53125-.136719-2.925781-.40625-4.1875-.273438-1.269531-.746094-2.34375-1.421875-3.21875-.667969-.882813-1.589844-1.570313-2.765625-2.0625-1.167969-.5-2.664062-.75-4.484375-.75-1.4375 0-2.84375.328125-4.21875.984375s-2.496094 1.703125-3.359375 3.140625h-.140625v-3.453125zm0 0"/></symbol><symbol id="L" overflow="visible"><path d="m3.3125-34.265625v34.265625h7.53125v-14.78125h13.875v14.78125h7.53125v-34.265625h-7.53125v13.140625h-13.875v-13.140625zm0 0"/></symbol><symbol id="M" overflow="visible"><path d="m2.296875-17.1875c.101563-1.59375.503906-2.914062 1.203125-3.96875.707031-1.0625 1.601562-1.910156 2.6875-2.546875 1.09375-.644531 2.316406-1.101563 3.671875-1.375 1.363281-.269531 2.734375-.40625 4.109375-.40625 1.25 0 2.515625.089844 3.796875.265625 1.28125.179688 2.445313.523438 3.5 1.03125 1.050781.511719 1.910156 1.226562 2.578125 2.140625.675781.90625 1.015625 2.109375 1.015625 3.609375v12.921875c0 1.117187.0625 2.1875.1875 3.21875.132813 1.023437.363281 1.789063.6875 2.296875h-6.921875c-.125-.382812-.230469-.773438-.3125-1.171875-.074219-.40625-.125-.816406-.15625-1.234375-1.09375 1.125-2.382812 1.914062-3.859375 2.359375-1.46875.445313-2.96875.671875-4.5.671875-1.1875 0-2.292969-.148438-3.3125-.4375-1.023437-.28125-1.917969-.722656-2.6875-1.328125-.773437-.613281-1.375-1.382813-1.8125-2.3125-.429687-.925781-.640625-2.03125-.640625-3.3125 0-1.40625.25-2.5625.75-3.46875.5-.914063 1.140625-1.644531 1.921875-2.1875.78125-.550781 1.675781-.960937 2.6875-1.234375 1.007813-.269531 2.023437-.484375 3.046875-.640625 1.019531-.164063 2.023438-.296875 3.015625-.390625 1-.09375 1.878906-.234375 2.640625-.421875.769531-.195313 1.378906-.476563 1.828125-.84375.445313-.375.65625-.910156.625-1.609375 0-.738281-.121094-1.320312-.359375-1.75-.242188-.4375-.5625-.773438-.96875-1.015625-.398438-.238281-.859375-.394531-1.390625-.46875-.523437-.082031-1.089844-.125-1.703125-.125-1.34375 0-2.402344.289063-3.171875.859375-.761719.574219-1.203125 1.53125-1.328125 2.875zm15.75 5.046875c-.292969.25-.65625.449219-1.09375.59375-.429687.148437-.890625.265625-1.390625.359375-.492188.09375-1.007812.179688-1.546875.25-.542969.0625-1.085937.140625-1.625.234375-.523437.09375-1.03125.226563-1.53125.390625-.492187.15625-.917969.371094-1.28125.640625-.367187.273437-.664063.617187-.890625 1.03125-.21875.417969-.328125.945313-.328125 1.578125 0 .617188.109375 1.132812.328125 1.546875.226562.417969.53125.746094.90625.984375.382812.242188.832031.40625 1.34375.5.519531.09375 1.050781.140625 1.59375.140625 1.34375 0 2.378906-.222656 3.109375-.671875.738281-.445312 1.285156-.984375 1.640625-1.609375.351562-.625.566406-1.253906.640625-1.890625.082031-.644531.125-1.15625.125-1.53125zm0 0"/></symbol><symbol id="N" overflow="visible"><path d="m2.59375-24.8125v24.8125h6.8125v-11.1875c0-1.113281.109375-2.148438.328125-3.109375.226563-.96875.601563-1.8125 1.125-2.53125.53125-.71875 1.226563-1.285156 2.09375-1.703125.863281-.414062 1.921875-.625 3.171875-.625.414062 0 .847656.027344 1.296875.078125.445313.042969.832031.101563 1.15625.171875v-6.34375c-.542969-.15625-1.039063-.234375-1.484375-.234375-.867188 0-1.699219.132813-2.5.390625-.804688.25-1.558594.609375-2.265625 1.078125-.699219.460937-1.324219 1.015625-1.875 1.671875-.542969.65625-.96875 1.371094-1.28125 2.140625h-.09375v-4.609375zm0 0"/></symbol><symbol id="O" overflow="visible"><path d="m2.78125-24.8125v24.8125h6.8125v-14.40625c0-1.207031.175781-2.1875.53125-2.9375.351562-.757812.773438-1.335938 1.265625-1.734375.5-.40625 1.015625-.675781 1.546875-.8125.53125-.144531.953125-.21875 1.265625-.21875 1.09375 0 1.914063.183594 2.46875.546875.5625.367188.960937.855469 1.203125 1.46875.238281.605469.375 1.265625.40625 1.984375.039062.71875.0625 1.449219.0625 2.1875v13.921875h6.8125v-13.828125c0-.757813.050781-1.515625.15625-2.265625.113281-.757812.335938-1.4375.671875-2.03125.34375-.59375.804687-1.070312 1.390625-1.4375.59375-.363281 1.375-.546875 2.34375-.546875.957031 0 1.710938.164063 2.265625.484375.5625.3125.988281.746094 1.28125 1.296875.289063.542969.46875 1.183594.53125 1.921875.0625.730469.09375 1.511719.09375 2.34375v14.0625h6.8125v-16.609375c0-1.601563-.226563-2.972656-.671875-4.109375-.449219-1.132812-1.074219-2.050781-1.875-2.75-.804688-.707031-1.765625-1.21875-2.890625-1.53125-1.117187-.320312-2.328125-.484375-3.640625-.484375-1.71875 0-3.214844.417969-4.484375 1.25-1.261719.835937-2.261719 1.792969-3 2.875-.667969-1.53125-1.652344-2.597656-2.953125-3.203125-1.292969-.613281-2.726562-.921875-4.296875-.921875-1.625 0-3.074219.355469-4.34375 1.0625-1.261719.699219-2.339844 1.6875-3.234375 2.96875h-.09375v-3.359375zm0 0"/></symbol><symbol id="P" overflow="visible"><path d="m1.0625-5.140625v5.140625h22.796875v-5.140625h-13.828125l12.90625-14.546875v-5.125h-20.921875v5.125h11.953125zm0 0"/></symbol><symbol id="Q" overflow="visible"><path d="m1.78125-20.6875h6.515625c0-.894531.085937-1.796875.265625-2.703125.175781-.914063.472656-1.75.890625-2.5.414063-.757813.96875-1.367187 1.65625-1.828125.6875-.46875 1.523437-.703125 2.515625-.703125 1.476562 0 2.6875.460937 3.625 1.375.945312.90625 1.421875 2.179687 1.421875 3.8125 0 1.023437-.234375 1.933594-.703125 2.734375-.460938.804688-1.03125 1.527344-1.71875 2.171875-.6875.636719-1.449219 1.21875-2.28125 1.75-.835938.523437-1.621094 1.039063-2.359375 1.546875-1.4375 1-2.808594 1.980469-4.109375 2.9375-1.292969.960938-2.417969 2.007812-3.375 3.140625-.960938 1.136719-1.71875 2.429687-2.28125 3.875-.554688 1.4375-.828125 3.132813-.828125 5.078125h24.671875v-5.859375h-15.890625c.832031-1.144531 1.789063-2.148437 2.875-3.015625 1.082031-.863281 2.203125-1.671875 3.359375-2.421875 1.15625-.757813 2.300781-1.519531 3.4375-2.28125 1.132812-.769531 2.148438-1.625 3.046875-2.5625.894531-.945313 1.613281-2.03125 2.15625-3.25.539063-1.21875.8125-2.675781.8125-4.375 0-1.625-.3125-3.09375-.9375-4.40625s-1.464844-2.414063-2.515625-3.3125c-1.054688-.894531-2.277344-1.582031-3.671875-2.0625-1.398437-.476563-2.859375-.71875-4.390625-.71875-2.023438 0-3.808594.34375-5.359375 1.03125-1.554687.6875-2.839844 1.648437-3.859375 2.875-1.023438 1.230469-1.789062 2.671875-2.296875 4.328125-.511719 1.648438-.734375 3.429688-.671875 5.34375zm0 0"/></symbol><symbol id="R" overflow="visible"><path d="m25.875 0v-24.8125h-6.8125v13c0 2.53125-.417969 4.351562-1.25 5.453125-.835938 1.105469-2.179688 1.65625-4.03125 1.65625-1.636719 0-2.777344-.503906-3.421875-1.515625-.636719-1.007812-.953125-2.535156-.953125-4.578125v-14.015625h-6.8125v15.265625c0 1.53125.132812 2.933594.40625 4.203125.269531 1.261719.738281 2.335938 1.40625 3.21875.675781.875 1.597656 1.554688 2.765625 2.03125 1.164063.476562 2.660156.71875 4.484375.71875 1.445312 0 2.859375-.320312 4.234375-.953125 1.375-.644531 2.492187-1.6875 3.359375-3.125h.140625v3.453125zm0 0"/></symbol><symbol id="S" overflow="visible"><path d="m14.15625-5.859375c-1.054688 0-1.933594-.222656-2.640625-.671875-.699219-.445312-1.265625-1.019531-1.703125-1.71875-.429688-.707031-.730469-1.5-.90625-2.375-.179688-.882812-.265625-1.773438-.265625-2.671875 0-.925781.101563-1.8125.3125-2.65625.207031-.851563.539063-1.609375 1-2.265625.46875-.65625 1.046875-1.175781 1.734375-1.5625.6875-.382812 1.507812-.578125 2.46875-.578125 1.125 0 2.050781.210937 2.78125.625.738281.417969 1.332031.980469 1.78125 1.6875.445312.710937.765625 1.523437.953125 2.4375.195313.90625.296875 1.871094.296875 2.890625 0 .898438-.121094 1.757812-.359375 2.578125-.242187.8125-.601563 1.539063-1.078125 2.171875-.480469.636719-1.089844 1.148438-1.828125 1.53125-.742187.386719-1.589844.578125-2.546875.578125zm12.296875 4.28125v-23.234375h-6.484375v3.3125h-.09375c-.835938-1.4375-1.871094-2.457031-3.109375-3.0625-1.230469-.613281-2.65625-.921875-4.28125-.921875-1.730469 0-3.261719.339844-4.59375 1.015625-1.324219.667969-2.433594 1.570312-3.328125 2.703125-.898438 1.136719-1.578125 2.449219-2.046875 3.9375-.460937 1.492187-.6875 3.03125-.6875 4.625 0 1.699219.195313 3.308594.59375 4.828125.40625 1.523438 1.035156 2.851562 1.890625 3.984375.863281 1.136719 1.96875 2.03125 3.3125 2.6875s2.945312.984375 4.8125.984375c1.5 0 2.925781-.3125 4.28125-.9375 1.363281-.625 2.414062-1.59375 3.15625-2.90625h.09375v3.265625c.03125 1.757813-.398438 3.210937-1.28125 4.359375-.875 1.15625-2.273438 1.734375-4.1875 1.734375-1.21875 0-2.292969-.25-3.21875-.75-.929688-.492187-1.554688-1.375-1.875-2.65625h-6.765625c.09375 1.40625.484375 2.613281 1.171875 3.625.6875 1.007813 1.550781 1.832031 2.59375 2.46875 1.039062.644531 2.191406 1.117187 3.453125 1.421875 1.269531.300781 2.507813.453125 3.71875.453125 2.851563 0 5.125-.386719 6.8125-1.15625 1.695313-.761719 2.992187-1.695313 3.890625-2.796875.894531-1.105469 1.476562-2.296875 1.75-3.578125.28125-1.28125.421875-2.414063.421875-3.40625zm0 0"/></symbol><symbol id="T" overflow="visible"><path d="m19.25 0 11.375-34.265625h-7.78125l-7.71875 24.09375h-.09375l-7.640625-24.09375h-7.734375l11.09375 34.265625zm0 0"/></symbol><symbol id="U" overflow="visible"><path d="m20.203125-12.484375c0 1.03125-.101563 2.027344-.296875 2.984375-.1875.960938-.507812 1.8125-.953125 2.5625-.449219.75-1.046875 1.351562-1.796875 1.796875-.75.449219-1.683594.671875-2.796875.671875-1.0625 0-1.96875-.226562-2.71875-.6875-.75-.46875-1.375-1.078125-1.875-1.828125-.492187-.75-.851563-1.601563-1.078125-2.5625-.21875-.957031-.328125-1.921875-.328125-2.890625 0-1.019531.097656-2 .296875-2.9375.207031-.945312.546875-1.789062 1.015625-2.53125.46875-.738281 1.082031-1.332031 1.84375-1.78125.769531-.445312 1.71875-.671875 2.84375-.671875 1.113281 0 2.035156.226563 2.765625.671875.738281.449219 1.335938 1.039062 1.796875 1.765625.46875.71875.796875 1.554687.984375 2.5.195312.9375.296875 1.917969.296875 2.9375zm.09375 9.3125v3.171875h6.484375v-34.265625h-6.8125v12.46875h-.09375c-.773438-1.207031-1.824219-2.125-3.15625-2.75-1.324219-.625-2.71875-.9375-4.1875-.9375-1.824219 0-3.429688.359375-4.8125 1.078125-1.375.71875-2.523438 1.671875-3.4375 2.859375-.90625 1.179687-1.59375 2.542969-2.0625 4.09375-.460938 1.554687-.6875 3.164063-.6875 4.828125 0 1.730469.226562 3.398438.6875 5 .46875 1.59375 1.15625 3.011719 2.0625 4.25.914062 1.230469 2.078125 2.203125 3.484375 2.921875 1.414063.71875 3.050781 1.078125 4.90625 1.078125 1.632813 0 3.097656-.296875 4.390625-.890625 1.300781-.59375 2.347656-1.5625 3.140625-2.90625zm0 0"/></symbol><symbol id="V" overflow="visible"><path d="m4.921875-6.640625h-4.25c-.023437 1.242187.203125 2.308594.671875 3.203125.46875.898438 1.097656 1.636719 1.890625 2.21875.789063.574219 1.703125.996094 2.734375 1.265625 1.039062.269531 2.113281.40625 3.21875.40625 1.363281 0 2.5625-.15625 3.59375-.46875 1.039062-.320313 1.910156-.769531 2.609375-1.34375.695313-.570313 1.222656-1.25 1.578125-2.03125.351562-.78125.53125-1.628906.53125-2.546875 0-1.113281-.242188-2.03125-.71875-2.75-.46875-.71875-1.03125-1.289062-1.6875-1.71875-.65625-.4375-1.320312-.75-1.984375-.9375-.65625-.195312-1.171875-.335938-1.546875-.421875-1.25-.3125-2.265625-.570313-3.046875-.78125-.773437-.207031-1.375-.410156-1.8125-.609375-.4375-.207031-.734375-.429688-.890625-.671875-.148438-.25-.21875-.566406-.21875-.953125 0-.425781.09375-.78125.28125-1.0625s.425781-.515625.71875-.703125c.289062-.1875.613281-.316406.96875-.390625.351562-.070312.707031-.109375 1.0625-.109375.539062 0 1.039062.046875 1.5.140625.457031.09375.863281.257812 1.21875.484375.351562.21875.632812.527344.84375.921875.21875.386719.347656.875.390625 1.46875h4.25c0-1.15625-.21875-2.140625-.65625-2.953125s-1.03125-1.476563-1.78125-2c-.75-.519531-1.605469-.894531-2.5625-1.125-.960937-.238281-1.964844-.359375-3.015625-.359375-.898438 0-1.792969.125-2.6875.375-.898438.242188-1.699219.609375-2.40625 1.109375-.710938.5-1.28125 1.132813-1.71875 1.890625-.4375.761719-.65625 1.652344-.65625 2.671875 0 .917969.171875 1.699219.515625 2.34375.34375.648437.796875 1.183594 1.359375 1.609375.5625.429688 1.195312.777344 1.90625 1.046875.707031.273437 1.4375.5 2.1875.6875.726562.210937 1.445312.398437 2.15625.5625.707031.167969 1.335938.367187 1.890625.59375.5625.21875 1.015625.496094 1.359375.828125.351562.335938.53125.773438.53125 1.3125 0 .511719-.136719.929688-.40625 1.25-.261719.324219-.589844.578125-.984375.765625-.386719.1875-.804687.320313-1.25.390625-.449219.0625-.867187.09375-1.25.09375-.585937 0-1.148437-.066406-1.6875-.203125-.542969-.144531-1.015625-.363281-1.421875-.65625-.398438-.289063-.71875-.664063-.96875-1.125-.242188-.46875-.359375-1.039063-.359375-1.71875zm0 0"/></symbol><symbol id="W" overflow="visible"><path d="m6.546875-14.46875v-4.34375h-3.96875v4.34375h-2.40625v2.65625h2.40625v8.53125c0 .730469.117187 1.320312.359375 1.765625.238281.449219.566406.796875.984375 1.046875.425781.242188.914063.4023438 1.46875.484375.550781.0820312 1.132813.125 1.75.125.394531 0 .796875-.011719 1.203125-.03125.40625-.0234375.78125-.0585938 1.125-.109375v-3.078125c-.1875.03125-.386719.058594-.59375.078125-.210938.023438-.421875.03125-.640625.03125-.679687 0-1.132813-.109375-1.359375-.328125-.21875-.226563-.328125-.675781-.328125-1.34375v-7.171875h2.921875v-2.65625zm0 0"/></symbol><symbol id="X" overflow="visible"><path d="m1.515625-14.46875v14.46875h3.96875v-6.53125c0-.644531.0625-1.25.1875-1.8125.132813-.5625.351563-1.050781.65625-1.46875.3125-.414062.71875-.742188 1.21875-.984375.507813-.25 1.128906-.375 1.859375-.375.238281 0 .488281.015625.75.046875.269531.023438.5.054688.6875.09375v-3.703125c-.324219-.09375-.617188-.140625-.875-.140625-.5 0-.984375.078125-1.453125.234375-.46875.148437-.914063.355469-1.328125.625-.40625.273437-.773438.601563-1.09375.984375-.3125.386719-.5625.804688-.75 1.25h-.046875v-2.6875zm0 0"/></symbol><symbol id="Y" overflow="visible"><path d="m15.09375 0v-14.46875h-3.984375v7.578125c0 1.480469-.246094 2.542969-.734375 3.1875-.480469.636719-1.261719.953125-2.34375.953125-.949219 0-1.609375-.289062-1.984375-.875-.375-.59375-.5625-1.484375-.5625-2.671875v-8.171875h-3.96875v8.890625c0 .898437.078125 1.714844.234375 2.453125.15625.742188.425781 1.371094.8125 1.890625.394531.511719.929688.90625 1.609375 1.1875.6875.269531 1.5625.40625 2.625.40625.84375 0 1.664063-.183594 2.46875-.546875.800781-.375 1.457031-.984375 1.96875-1.828125h.078125v2.015625zm0 0"/></symbol><symbol id="Z" overflow="visible"><path d="m11.375-9.375h3.890625c-.0625-.9375-.292969-1.742188-.6875-2.421875-.386719-.6875-.890625-1.257813-1.515625-1.71875-.625-.457031-1.335938-.796875-2.125-1.015625-.792969-.226562-1.621094-.34375-2.484375-.34375-1.179687 0-2.226563.199219-3.140625.59375-.90625.398438-1.679688.945312-2.3125 1.640625-.636719.699219-1.121094 1.53125-1.453125 2.5-.324219.960937-.484375 1.996094-.484375 3.109375 0 1.085938.175781 2.078125.53125 2.984375.351562.90625.847656 1.6875 1.484375 2.34375.632813.648437 1.40625 1.152344 2.3125 1.515625s1.898437.546875 2.984375.546875c1.914062 0 3.488281-.5 4.71875-1.5 1.238281-1.007813 1.988281-2.476563 2.25-4.40625h-3.828125c-.136719.898437-.464844 1.609375-.984375 2.140625-.511719.53125-1.242188.796875-2.1875.796875-.617188 0-1.140625-.132813-1.578125-.40625-.429687-.28125-.765625-.640625-1.015625-1.078125-.25-.445312-.433594-.941406-.546875-1.484375-.105469-.539063-.15625-1.070313-.15625-1.59375 0-.539063.050781-1.082031.15625-1.625.113281-.550781.304687-1.054687.578125-1.515625.269531-.457031.617188-.832031 1.046875-1.125.425781-.289062.957031-.4375 1.59375-.4375 1.695313 0 2.679687.835938 2.953125 2.5zm0 0"/></symbol><symbol id="aa" overflow="visible"><path d="m11.25-8.796875h-6.46875c.019531-.28125.082031-.597656.1875-.953125.101562-.351562.28125-.6875.53125-1 .25-.320312.582031-.585938 1-.796875.425781-.21875.957031-.328125 1.59375-.328125.96875 0 1.6875.265625 2.15625.796875.476562.523437.8125 1.28125 1 2.28125zm-6.46875 2.53125h10.453125c.070313-1.125-.023437-2.195313-.28125-3.21875-.261719-1.03125-.6875-1.945313-1.28125-2.75-.585937-.800781-1.335937-1.441406-2.25-1.921875-.917969-.476562-1.992187-.71875-3.21875-.71875-1.105469 0-2.109375.199219-3.015625.59375-.898438.398438-1.671875.9375-2.328125 1.625-.65625.679688-1.164063 1.484375-1.515625 2.421875-.355469.929687-.53125 1.933594-.53125 3.015625 0 1.117188.171875 2.140625.515625 3.078125.34375.929687.832031 1.730469 1.46875 2.40625.632813.667969 1.410156 1.183594 2.328125 1.546875.914062.363281 1.941406.546875 3.078125.546875 1.644531 0 3.046875-.3671875 4.203125-1.109375 1.15625-.75 2.015625-1.992188 2.578125-3.734375h-3.5c-.136719.449219-.496094.875-1.078125 1.28125-.574219.398437-1.261719.59375-2.0625.59375-1.125 0-1.984375-.285156-2.578125-.859375-.59375-.582031-.921875-1.515625-.984375-2.796875zm0 0"/></symbol><symbol id="ab" overflow="visible"><path d="m4.59375-4.703125h-3.78125c.039062.96875.257812 1.777344.65625 2.421875.40625.648438.921875 1.167969 1.546875 1.5625.625.386719 1.335937.6640625 2.140625.828125.800781.164063 1.617188.25 2.453125.25.820313 0 1.628906-.078125 2.421875-.234375.800781-.15625 1.507812-.425781 2.125-.8125.613281-.394531 1.109375-.914062 1.484375-1.5625.382813-.644531.578125-1.441406.578125-2.390625 0-.675781-.132812-1.242187-.390625-1.703125-.261719-.457031-.605469-.835938-1.03125-1.140625-.429687-.3125-.917969-.5625-1.46875-.75-.554687-.1875-1.121094-.34375-1.703125-.46875-.554688-.132813-1.101562-.253906-1.640625-.359375-.542969-.113281-1.027344-.238281-1.453125-.375-.417969-.144531-.757812-.328125-1.015625-.546875-.261719-.226563-.390625-.519531-.390625-.875 0-.300781.070312-.539063.21875-.71875.15625-.175781.335938-.3125.546875-.40625.21875-.09375.457031-.148437.71875-.171875.257813-.03125.503906-.046875.734375-.046875.707031 0 1.320312.136719 1.84375.40625.519531.273437.804688.789063.859375 1.546875h3.78125c-.074219-.894531-.304687-1.632812-.6875-2.21875-.375-.59375-.855469-1.066406-1.4375-1.421875-.574219-.351563-1.230469-.601563-1.96875-.75-.742187-.15625-1.5-.234375-2.28125-.234375-.792969 0-1.5625.074219-2.3125.21875-.742187.136719-1.414063.382812-2.015625.734375-.59375.34375-1.074219.8125-1.4375 1.40625-.367188.59375-.546875 1.359375-.546875 2.296875 0 .636719.128906 1.171875.390625 1.609375.269531.4375.617188.804687 1.046875 1.09375.425781.292969.914063.527344 1.46875.703125.550781.179688 1.113281.328125 1.6875.453125 1.425781.304687 2.535156.605469 3.328125.90625.789062.292969 1.1875.742187 1.1875 1.34375 0 .355469-.085938.648437-.25.875-.167969.230469-.382812.417969-.640625.5625-.25.136719-.53125.242187-.84375.3125-.304687.0625-.59375.09375-.875.09375-.386719 0-.761719-.046875-1.125-.140625-.367187-.09375-.6875-.238281-.96875-.4375-.28125-.195312-.511719-.445312-.6875-.75-.179687-.3125-.265625-.679688-.265625-1.109375zm0 0"/></symbol><symbol id="ac" overflow="visible"><path d="m5.453125-9.90625c0-.882812.097656-1.734375.296875-2.546875.195312-.820313.507812-1.554687.9375-2.203125.4375-.644531 1-1.15625 1.6875-1.53125.6875-.382812 1.523438-.578125 2.515625-.578125.988281 0 1.828125.195313 2.515625.578125.695312.375 1.257812.886719 1.6875 1.53125.425781.648438.738281 1.382812.9375 2.203125.195312.8125.296875 1.664063.296875 2.546875 0 .835938-.101563 1.652344-.296875 2.453125-.199219.792969-.511719 1.507813-.9375 2.140625-.429688.625-.992188 1.132812-1.6875 1.515625-.6875.386719-1.527344.578125-2.515625.578125-.992187 0-1.828125-.191406-2.515625-.578125-.6875-.382813-1.25-.890625-1.6875-1.515625-.429688-.632812-.742188-1.347656-.9375-2.140625-.199219-.800781-.296875-1.617187-.296875-2.453125zm-4.390625 0c0 1.449219.222656 2.804688.671875 4.0625.445313 1.261719 1.085937 2.359375 1.921875 3.296875.84375.9375 1.875 1.671875 3.09375 2.203125 1.226562.53125 2.609375.796875 4.140625.796875 1.550781 0 2.929687-.265625 4.140625-.796875 1.21875-.53125 2.242188-1.265625 3.078125-2.203125.84375-.9375 1.488281-2.035156 1.9375-3.296875.445313-1.257812.671875-2.613281.671875-4.0625 0-1.5-.226562-2.882812-.671875-4.15625-.449219-1.28125-1.09375-2.394531-1.9375-3.34375-.835937-.957031-1.859375-1.707031-3.078125-2.25-1.210938-.539062-2.589844-.8125-4.140625-.8125-1.53125 0-2.914063.273438-4.140625.8125-1.21875.542969-2.25 1.292969-3.09375 2.25-.835938.949219-1.476562 2.0625-1.921875 3.34375-.449219 1.273438-.671875 2.65625-.671875 4.15625zm0 0"/></symbol><symbol id="ad" overflow="visible"><path d="m8.265625-3.421875c-.617187 0-1.132813-.128906-1.546875-.390625-.40625-.257812-.742188-.59375-1-1-.25-.414062-.429688-.878906-.53125-1.390625-.09375-.507813-.140625-1.023437-.140625-1.546875 0-.539062.054687-1.054688.171875-1.546875.125-.5.320312-.941406.59375-1.328125.269531-.382812.601562-.6875 1-.90625.40625-.226562.890625-.34375 1.453125-.34375.644531 0 1.179687.125 1.609375.375.4375.242188.785156.570312 1.046875.984375.257813.40625.441406.875.546875 1.40625.113281.53125.171875 1.09375.171875 1.6875 0 .523437-.070313 1.023437-.203125 1.5-.136719.480469-.34375.90625-.625 1.28125-.28125.367187-.640625.664063-1.078125.890625-.429687.21875-.917969.328125-1.46875.328125zm7.15625 2.5v-13.546875h-3.78125v1.921875h-.046875c-.492188-.832031-1.09375-1.425781-1.8125-1.78125-.71875-.363281-1.554688-.546875-2.5-.546875-1.011719 0-1.90625.199219-2.6875.59375-.773438.398438-1.417969.929688-1.9375 1.59375-.523438.65625-.917969 1.421875-1.1875 2.296875-.273438.867187-.40625 1.761719-.40625 2.6875 0 .992187.113281 1.929687.34375 2.8125.238281.886719.609375 1.664063 1.109375 2.328125.507813.667969 1.15625 1.195312 1.9375 1.578125.78125.375 1.710937.5625 2.796875.5625.875 0 1.707031-.179687 2.5-.546875.800781-.363281 1.414062-.925781 1.84375-1.6875h.046875v1.90625c.019531 1.019531-.226563 1.863281-.734375 2.53125-.511719.675781-1.328125 1.015625-2.453125 1.015625-.710937 0-1.335937-.148437-1.875-.4375-.542969-.28125-.90625-.796875-1.09375-1.546875h-3.9375c.050781.820312.273437 1.523438.671875 2.109375.40625.59375.910156 1.070313 1.515625 1.4375.601563.375 1.273437.648437 2.015625.828125.738281.175781 1.460938.265625 2.171875.265625 1.664063 0 2.992187-.226563 3.984375-.671875.988281-.449219 1.742188-.996094 2.265625-1.640625.519531-.636719.859375-1.328125 1.015625-2.078125s.234375-1.410156.234375-1.984375zm0 0"/></symbol><symbol id="ae" overflow="visible"><path d="m1.34375-10.03125c.050781-.925781.28125-1.695312.6875-2.3125.414062-.613281.941406-1.109375 1.578125-1.484375.632813-.375 1.347656-.640625 2.140625-.796875.789062-.164062 1.585938-.25 2.390625-.25.726563 0 1.46875.054688 2.21875.15625.75.105469 1.429687.308594 2.046875.609375.613281.304687 1.113281.71875 1.5 1.25.394531.53125.59375 1.234375.59375 2.109375v7.53125c0 .65625.035156 1.28125.109375 1.875.082031.59375.21875 1.042969.40625 1.34375h-4.046875c-.074219-.226562-.136719-.457031-.1875-.6875-.042969-.226562-.070312-.46875-.078125-.71875-.636719.65625-1.386719 1.117188-2.25 1.375-.855469.257812-1.730469.390625-2.625.390625-.699219 0-1.34375-.085937-1.9375-.25-.59375-.1640625-1.117187-.425781-1.5625-.78125-.449219-.351563-.804687-.800781-1.0625-1.34375-.25-.539063-.375-1.1875-.375-1.9375 0-.820313.144531-1.5.4375-2.03125.289063-.53125.664063-.953125 1.125-1.265625.457031-.320312.976563-.5625 1.5625-.71875.59375-.15625 1.1875-.28125 1.78125-.375s1.175781-.164062 1.75-.21875c.582031-.0625 1.097656-.144531 1.546875-.25.445312-.113281.800781-.273438 1.0625-.484375.269531-.21875.394531-.535156.375-.953125 0-.425781-.074219-.765625-.21875-1.015625-.136719-.25-.324219-.441406-.5625-.578125-.230469-.144531-.5-.238281-.8125-.28125-.304688-.050781-.632812-.078125-.984375-.078125-.78125 0-1.398437.167969-1.84375.5-.449219.335937-.714844.890625-.796875 1.671875zm9.1875 2.953125c-.167969.148437-.382812.261719-.640625.34375-.25.085937-.523437.15625-.8125.21875-.28125.054687-.585937.101563-.90625.140625-.3125.03125-.632813.074219-.953125.125-.292969.0625-.585938.140625-.875.234375-.292969.09375-.546875.21875-.765625.375-.210937.15625-.382813.359375-.515625.609375-.125.242188-.1875.546875-.1875.921875 0 .355469.0625.652344.1875.890625.132812.242188.3125.433594.53125.578125.226562.136719.488281.234375.78125.296875.300781.054688.613281.078125.9375.078125.78125 0 1.382812-.128906 1.8125-.390625.425781-.257812.742188-.570312.953125-.9375.207031-.363281.332031-.734375.375-1.109375.050781-.375.078125-.671875.078125-.890625zm0 0"/></symbol><symbol id="af" overflow="visible"><path d="m1.515625-14.46875v14.46875h3.96875v-7.59375c0-1.46875.238281-2.523438.71875-3.171875.488281-.644531 1.273437-.96875 2.359375-.96875.957031 0 1.617188.296875 1.984375.890625.375.585938.5625 1.476562.5625 2.671875v8.171875h3.984375v-8.90625c0-.894531-.085938-1.707031-.25-2.4375-.15625-.738281-.433594-1.363281-.828125-1.875-.386719-.519531-.921875-.925781-1.609375-1.21875-.679688-.289062-1.546875-.4375-2.609375-.4375-.835937 0-1.65625.195312-2.46875.578125-.804687.386719-1.453125 1-1.953125 1.84375h-.078125v-2.015625zm0 0"/></symbol><symbol id="ag" overflow="visible"><path d="m5.59375-16.71875v-3.265625h-3.96875v3.265625zm-3.96875 2.25v14.46875h3.96875v-14.46875zm0 0"/></symbol><symbol id="ah" overflow="visible"><path d="m1.625-14.46875v14.46875h3.96875v-8.40625c0-.707031.101562-1.28125.3125-1.71875.207031-.4375.453125-.769531.734375-1 .289063-.238281.59375-.398438.90625-.484375.3125-.082031.554687-.125.734375-.125.632812 0 1.113281.109375 1.4375.328125.332031.210938.566406.492188.703125.84375.144531.355469.226563.746094.25 1.171875.019531.417969.03125.839844.03125 1.265625v8.125h3.96875v-8.0625c0-.445312.03125-.890625.09375-1.328125.070313-.4375.203125-.828125.390625-1.171875.195312-.351562.46875-.632812.8125-.84375.34375-.21875.796875-.328125 1.359375-.328125s1.003906.09375 1.328125.28125c.332031.1875.582031.445313.75.765625.164062.3125.265625.683594.296875 1.109375.039063.429687.0625.886719.0625 1.375v8.203125h3.984375v-9.6875c0-.9375-.136719-1.734375-.40625-2.390625-.261719-.664063-.625-1.203125-1.09375-1.609375-.460938-.414062-1.015625-.71875-1.671875-.90625s-1.367187-.28125-2.125-.28125c-1.011719 0-1.886719.246094-2.625.734375-.730469.492187-1.3125 1.054687-1.75 1.6875-.386719-.894531-.960937-1.519531-1.71875-1.875-.75-.363281-1.585937-.546875-2.5-.546875-.960937 0-1.808594.210938-2.546875.625-.730469.40625-1.355469.984375-1.875 1.734375h-.0625v-1.953125zm0 0"/></symbol><symbol id="ai" overflow="visible"><path d="m6.328125-10.953125v-5.625h4.8125c1.007813 0 1.765625.21875 2.265625.65625.507812.4375.765625 1.148437.765625 2.125 0 1-.257813 1.726563-.765625 2.171875-.5.449219-1.257812.671875-2.265625.671875zm-4.390625-9.03125v19.984375h4.390625v-7.8125h4.390625c1.101562 0 1.894531.246094 2.375.734375.488281.480469.8125 1.246094.96875 2.296875.101562.804688.179688 1.640625.234375 2.515625.0625.875.210937 1.632813.453125 2.265625h4.40625c-.210938-.28125-.367188-.617188-.46875-1.015625-.105469-.40625-.183594-.832031-.234375-1.28125-.042969-.445313-.074219-.882813-.09375-1.3125-.011719-.425781-.027344-.800781-.046875-1.125-.042969-.5-.117188-1-.21875-1.5-.09375-.507813-.257812-.972656-.484375-1.390625-.21875-.425781-.507813-.789062-.859375-1.09375-.355469-.3125-.804688-.539062-1.34375-.6875v-.0625c1.113281-.445312 1.914062-1.097656 2.40625-1.953125.5-.863281.75-1.878906.75-3.046875 0-.769531-.136719-1.484375-.40625-2.140625-.273438-.664063-.664062-1.25-1.171875-1.75-.511719-.507813-1.125-.90625-1.84375-1.1875-.71875-.289063-1.527344-.4375-2.421875-.4375zm0 0"/></symbol><symbol id="aj" overflow="visible"><path d="m2.375-11.8125v11.8125h3.984375v-11.8125h2.734375v-2.65625h-2.734375v-.875c0-.59375.113281-1.015625.34375-1.265625.238281-.257813.628906-.390625 1.171875-.390625.5 0 .984375.03125 1.453125.09375v-2.96875c-.34375-.019531-.695313-.039062-1.046875-.0625-.355469-.03125-.710938-.046875-1.0625-.046875-1.625 0-2.839844.414063-3.640625 1.234375-.804687.8125-1.203125 1.867188-1.203125 3.15625v1.125h-2.375v2.65625zm0 0"/></symbol><symbol id="ak" overflow="visible"><path d="m8.8125-2.609375c-.625 0-1.164062-.128906-1.609375-.390625-.449219-.257812-.808594-.597656-1.078125-1.015625-.273438-.414063-.46875-.90625-.59375-1.46875s-.1875-1.132813-.1875-1.71875c0-.59375.054688-1.164063.171875-1.71875.113281-.5625.304687-1.054687.578125-1.484375.269531-.4375.625-.789062 1.0625-1.0625.4375-.269531.984375-.40625 1.640625-.40625.632813 0 1.171875.136719 1.609375.40625.4375.273438.796875.625 1.078125 1.0625s.476563.9375.59375 1.5c.125.5625.1875 1.132812.1875 1.703125 0 .585937-.058594 1.15625-.171875 1.71875-.117188.5625-.308594 1.054687-.578125 1.46875-.273437.417969-.625.757813-1.0625 1.015625-.4375.261719-.984375.390625-1.640625.390625zm-7.296875-11.859375v19.53125h3.96875v-6.859375h.0625c.476563.710937 1.097656 1.246094 1.859375 1.609375.757812.363281 1.585938.546875 2.484375.546875 1.0625 0 1.988281-.203125 2.78125-.609375.789063-.414062 1.453125-.96875 1.984375-1.65625s.925781-1.476562 1.1875-2.375c.257812-.894531.390625-1.828125.390625-2.796875 0-1.03125-.132813-2.015625-.390625-2.953125-.261719-.945312-.664062-1.773438-1.203125-2.484375-.542969-.707031-1.226563-1.273437-2.046875-1.703125-.8125-.4375-1.792969-.65625-2.9375-.65625-.898438 0-1.71875.183594-2.46875.546875-.742188.355469-1.355469.921875-1.84375 1.703125h-.046875v-1.84375zm0 0"/></symbol><symbol id="al" overflow="visible"/><symbol id="am" overflow="visible"><path d="m1.9375-19.984375v19.984375h4.109375v-13.390625h.0625l8.3125 13.390625h4.390625v-19.984375h-4.109375v13.40625h-.0625l-8.34375-13.40625zm0 0"/></symbol><symbol id="an" overflow="visible"><path d="m1.625-19.984375v19.984375h3.96875v-19.984375zm0 0"/></symbol><symbol id="ao" overflow="visible"><path d="m6.328125-10.578125v-6h3.421875c.5 0 .984375.039063 1.453125.109375.46875.074219.878906.21875 1.234375.4375.351562.21875.632812.527344.84375.921875.21875.386719.328125.898437.328125 1.53125 0 .636719-.109375 1.152344-.328125 1.546875-.210938.386719-.492188.6875-.84375.90625-.355469.210938-.765625.355469-1.234375.4375-.46875.074219-.953125.109375-1.453125.109375zm-4.390625-9.40625v19.984375h4.390625v-7.171875h4.625c1.25 0 2.3125-.179687 3.1875-.546875.875-.363281 1.585937-.84375 2.140625-1.4375.550781-.59375.953125-1.273438 1.203125-2.046875.25-.78125.375-1.570313.375-2.375 0-.820313-.125-1.613281-.375-2.375-.25-.769531-.652344-1.453125-1.203125-2.046875-.554688-.601562-1.265625-1.082031-2.140625-1.4375-.875-.363281-1.9375-.546875-3.1875-.546875zm0 0"/></symbol><symbol id="ap" overflow="visible"><path d="m5.046875-7.21875c0-.582031.050781-1.148438.15625-1.703125.113281-.5625.304687-1.054687.578125-1.484375.269531-.4375.628906-.789062 1.078125-1.0625.445313-.269531 1.007813-.40625 1.6875-.40625.664063 0 1.226563.136719 1.6875.40625.457031.273438.820313.625 1.09375 1.0625.269531.429688.457031.921875.5625 1.484375.113281.554687.171875 1.121094.171875 1.703125 0 .574219-.058594 1.136719-.171875 1.6875-.105469.554688-.292969 1.046875-.5625 1.484375-.273437.4375-.636719.789063-1.09375 1.046875-.460937.261719-1.023437.390625-1.6875.390625-.679687 0-1.242187-.128906-1.6875-.390625-.449219-.257812-.808594-.609375-1.078125-1.046875-.273438-.4375-.464844-.929687-.578125-1.484375-.105469-.550781-.15625-1.113281-.15625-1.6875zm-3.984375 0c0 1.15625.175781 2.203125.53125 3.140625.351562.929687.859375 1.726563 1.515625 2.390625.65625.65625 1.4375 1.164062 2.34375 1.515625.914063.351563 1.945313.53125 3.09375.53125 1.132813 0 2.160156-.179687 3.078125-.53125.925781-.351563 1.71875-.859375 2.375-1.515625.65625-.664062 1.160156-1.460938 1.515625-2.390625.351563-.9375.53125-1.984375.53125-3.140625s-.179687-2.203125-.53125-3.140625c-.355469-.945313-.859375-1.753906-1.515625-2.421875-.65625-.664062-1.449219-1.179688-2.375-1.546875-.917969-.363281-1.945312-.546875-3.078125-.546875-1.148437 0-2.179687.183594-3.09375.546875-.90625.367187-1.6875.882813-2.34375 1.546875-.65625.667969-1.164063 1.476562-1.515625 2.421875-.355469.9375-.53125 1.984375-.53125 3.140625zm0 0"/></symbol><symbol id="aq" overflow="visible"><path d="m11.78125-7.28125c0 .59375-.058594 1.171875-.171875 1.734375-.105469.5625-.289063 1.0625-.546875 1.5-.261719.4375-.609375.789063-1.046875 1.046875-.4375.261719-.984375.390625-1.640625.390625-.617188 0-1.148438-.132813-1.59375-.40625-.4375-.269531-.804688-.625-1.09375-1.0625-.28125-.4375-.492188-.929687-.625-1.484375-.125-.5625-.1875-1.125-.1875-1.6875 0-.59375.054688-1.164062.171875-1.71875.125-.550781.320313-1.039062.59375-1.46875.269531-.4375.628906-.785156 1.078125-1.046875.445312-.257813 1-.390625 1.65625-.390625s1.195312.132812 1.625.390625c.425781.261719.773438.605469 1.046875 1.03125.269531.417969.457031.902344.5625 1.453125.113281.554688.171875 1.125.171875 1.71875zm.0625 5.4375v1.84375h3.78125v-19.984375h-3.984375v7.265625h-.046875c-.449219-.707031-1.0625-1.242188-1.84375-1.609375-.773438-.363281-1.585938-.546875-2.4375-.546875-1.0625 0-2 .214844-2.8125.640625-.804688.417969-1.46875.976563-2 1.671875-.53125.6875-.933594 1.484375-1.203125 2.390625-.273437.90625-.40625 1.84375-.40625 2.8125 0 1 .132813 1.96875.40625 2.90625.269531.9375.671875 1.765625 1.203125 2.484375s1.207031 1.289062 2.03125 1.703125c.820312.414063 1.773438.625 2.859375.625.945313 0 1.800781-.171875 2.5625-.515625.757813-.34375 1.367187-.90625 1.828125-1.6875zm0 0"/></symbol><symbol id="ar" overflow="visible"><path d="m6.328125-3.703125v-12.59375h3.140625c1.082031 0 1.988281.15625 2.71875.46875.738281.304687 1.332031.746094 1.78125 1.328125.445312.574219.769531 1.265625.96875 2.078125.195312.8125.296875 1.726563.296875 2.734375 0 1.105469-.140625 2.042969-.421875 2.8125-.28125.761719-.65625 1.382812-1.125 1.859375-.46875.46875-1 .808594-1.59375 1.015625-.59375.199219-1.210938.296875-1.84375.296875zm-4.390625-16.28125v19.984375h8.625c1.53125 0 2.859375-.253906 3.984375-.765625 1.125-.519531 2.066406-1.226563 2.828125-2.125.757812-.894531 1.320312-1.957031 1.6875-3.1875.375-1.226563.5625-2.570313.5625-4.03125 0-1.65625-.230469-3.097656-.6875-4.328125-.460938-1.238281-1.09375-2.269531-1.90625-3.09375-.8125-.820312-1.777344-1.4375-2.890625-1.84375-1.105469-.40625-2.296875-.609375-3.578125-.609375zm0 0"/></symbol><symbol id="as" overflow="visible"><path d="m12.125-7.21875c0 .59375-.070312 1.171875-.203125 1.734375-.125.5625-.328125 1.058594-.609375 1.484375-.28125.429688-.636719.765625-1.0625 1.015625-.417969.25-.921875.375-1.515625.375-.574219 0-1.078125-.125-1.515625-.375-.429688-.25-.78125-.585937-1.0625-1.015625-.28125-.425781-.492188-.921875-.625-1.484375-.125-.5625-.1875-1.140625-.1875-1.734375 0-.613281.0625-1.203125.1875-1.765625.132812-.5625.34375-1.054687.625-1.484375.28125-.425781.632812-.765625 1.0625-1.015625.4375-.257813.941406-.390625 1.515625-.390625.59375 0 1.097656.132812 1.515625.390625.425781.25.78125.589844 1.0625 1.015625.28125.429688.484375.921875.609375 1.484375.132813.5625.203125 1.152344.203125 1.765625zm-10.609375-12.765625v19.984375h3.78125v-1.84375h.046875c.425781.804688 1.0625 1.371094 1.90625 1.703125s1.796875.5 2.859375.5c.726563 0 1.445313-.148437 2.15625-.4375.707031-.300781 1.34375-.757813 1.90625-1.375.570313-.613281 1.035156-1.398437 1.390625-2.359375.351562-.96875.53125-2.113281.53125-3.4375 0-1.320312-.179688-2.460938-.53125-3.421875-.355469-.96875-.820312-1.757813-1.390625-2.375-.5625-.613281-1.199219-1.070313-1.90625-1.375-.710937-.300781-1.429687-.453125-2.15625-.453125-.898437 0-1.761719.179688-2.59375.53125-.835937.34375-1.492187.886719-1.96875 1.625h-.0625v-7.265625zm0 0"/></symbol><symbol id="at" overflow="visible"><path d="m6.359375-16.296875v16.296875h4.390625v-16.296875h6v-3.6875h-16.390625v3.6875zm0 0"/></symbol><symbol id="au" overflow="visible"><path d="m15.265625-13.265625h4.25c-.136719-1.164063-.453125-2.195313-.953125-3.09375-.5-.894531-1.140625-1.644531-1.921875-2.25-.773437-.601563-1.648437-1.0625-2.625-1.375-.980469-.320313-2.023437-.484375-3.125-.484375-1.53125 0-2.914063.273438-4.140625.8125-1.21875.542969-2.25 1.292969-3.09375 2.25-.835938.949219-1.476562 2.0625-1.921875 3.34375-.449219 1.273438-.671875 2.65625-.671875 4.15625 0 1.449219.222656 2.804688.671875 4.0625.445313 1.261719 1.085937 2.359375 1.921875 3.296875.84375.9375 1.875 1.671875 3.09375 2.203125 1.226562.53125 2.609375.796875 4.140625.796875 1.226563 0 2.351563-.1875 3.375-.5625 1.03125-.375 1.925781-.914063 2.6875-1.625.769531-.707031 1.390625-1.566406 1.859375-2.578125.46875-1.007812.757812-2.140625.875-3.390625h-4.265625c-.167969 1.34375-.632813 2.429687-1.390625 3.25-.75.824219-1.796875 1.234375-3.140625 1.234375-.992187 0-1.828125-.191406-2.515625-.578125-.6875-.382813-1.25-.890625-1.6875-1.515625-.429688-.632812-.742188-1.347656-.9375-2.140625-.199219-.800781-.296875-1.617187-.296875-2.453125 0-.882812.097656-1.734375.296875-2.546875.195312-.820313.507812-1.554687.9375-2.203125.4375-.644531 1-1.15625 1.6875-1.53125.6875-.382812 1.523438-.578125 2.515625-.578125.539063 0 1.054687.089844 1.546875.265625.5.179688.941406.429688 1.328125.75.394531.3125.722656.679688.984375 1.09375.257812.417969.429688.882812.515625 1.390625zm0 0"/></symbol><symbol id="av" overflow="visible"><path d="m6.96875-7.734375 2.609375-7.328125h.046875l2.53125 7.328125zm.421875-12.25-7.5625 19.984375h4.421875l1.578125-4.453125h7.46875l1.515625 4.453125h4.5625l-7.46875-19.984375zm0 0"/></symbol><symbol id="aw" overflow="visible"><path d="m11.234375 0 6.625-19.984375h-4.53125l-4.515625 14.046875h-.046875l-4.453125-14.046875h-4.515625l6.46875 19.984375zm0 0"/></symbol><path d="m0 0h1920v1080h-1920z" fill="#fff"/><path d="m22.928306-.00069375h354.140625c6.730469 0 10.765625 0 13.457031 1.12499975 3.882813 1.410157 6.9375 4.46875 8.351563 8.347657 1.121094 2.691406 1.121094 6.730468 1.121094 13.457031v554.140625c0 6.730469 0 10.765625-1.121094 13.457031-1.414063 3.882813-4.46875 6.9375-8.351563 8.351563-2.691406 1.121093-6.726562 1.121093-13.457031 1.121093h-354.140625c-6.726562 0-10.765625 0-13.457031-1.121093-3.878906-1.414063-6.933594-4.46875-8.347656-8.351563-1.12500025-2.691406-1.12500025-6.726562-1.12500025-13.457031v-554.140625c0-6.726563 0-10.765625 1.12500025-13.457031 1.414062-3.878907 4.46875-6.9375 8.347656-8.347657 2.691406-1.12499975 6.730469-1.12499975 13.457031-1.12499975zm0 0" fill="#9ecae1" stroke="#fff" stroke-width="4" transform="translate(612.3881 143.2546)"/><path d="m18.411881-.0014125c-.628906 0-1.257812.2382815-1.734375.7187495-.957031.957032-.957031 2.507813 0 3.464844l4.480469 4.484375h-18.707031c-1.355469 0-2.449219 1.09375-2.449219 2.449219 0 1.351562 1.09375 2.449219 2.449219 2.449219h18.707031l-4.480469 4.480468c-.957031.957032-.957031 2.511719 0 3.46875.476563.476563 1.105469.714844 1.734375.714844.625 0 1.253906-.238281 1.730469-.714844l8.664062-8.664062c.480469-.480469.71875-1.109375.71875-1.734375 0-.628906-.238281-1.253906-.71875-1.734375l-8.664062-8.664063c-.476563-.480468-1.105469-.7187495-1.730469-.7187495zm0 0" fill="#fff" stroke="#000" stroke-width=".5" transform="translate(707.7014 434.5561)"/><path d="m18.411938-.0014125c-.628907 0-1.257813.2382815-1.734375.7187495-.957032.957032-.957032 2.507813 0 3.464844l4.480468 4.484375h-18.707031c-1.355469 0-2.44921875 1.09375-2.44921875 2.449219 0 1.351562 1.09374975 2.449219 2.44921875 2.449219h18.707031l-4.480468 4.480468c-.957032.957032-.957032 2.511719 0 3.46875.476562.476563 1.105468.714844 1.734375.714844.625 0 1.253906-.238281 1.730468-.714844l8.664063-8.664062c.480469-.480469.71875-1.109375.71875-1.734375 0-.628906-.238281-1.253906-.71875-1.734375l-8.664063-8.664063c-.476562-.480468-1.105468-.7187495-1.730468-.7187495zm0 0" fill="#fff" stroke="#000" stroke-width=".5" transform="translate(887.049 434.5561)"/><path d="m233.253906 143.253906h354.136719c6.730469 0 10.765625 0 13.457031 1.125 3.882813 1.410156 6.9375 4.46875 8.351563 8.347656 1.121093 2.691407 1.121093 6.730469 1.121093 13.457032v554.140625c0 6.730469 0 10.765625-1.121093 13.457031-1.414063 3.882812-4.46875 6.9375-8.351563 8.351562-2.691406 1.121094-6.726562 1.121094-13.457031 1.121094h-354.136719c-6.730468 0-10.769531 0-13.460937-1.121094-3.878907-1.414062-6.933594-4.46875-8.347657-8.351562-1.125-2.691406-1.125-6.726562-1.125-13.457031v-554.140625c0-6.726563 0-10.765625 1.125-13.457032 1.414063-3.878906 4.46875-6.9375 8.347657-8.347656 2.691406-1.125 6.730469-1.125 13.460937-1.125zm0 0" fill="#c6dbef"/><path d="m22.931806-.00069375h354.136719c6.730469 0 10.765625 0 13.460937 1.12499975 3.878907 1.410157 6.933594 4.46875 8.347657 8.347657 1.121093 2.691406 1.121093 6.730468 1.121093 13.457031v554.140625c0 6.730469 0 10.765625-1.121093 13.457031-1.414063 3.882813-4.46875 6.9375-8.347657 8.351563-2.695312 1.121093-6.730468 1.121093-13.460937 1.121093h-354.136719c-6.730469 0-10.769531 0-13.460937-1.121093-3.878907-1.414063-6.933594-4.46875-8.347657-8.351563-1.1249995-2.691406-1.1249995-6.726562-1.1249995-13.457031v-554.140625c0-6.726563 0-10.765625 1.1249995-13.457031 1.414063-3.878907 4.46875-6.9375 8.347657-8.347657 2.691406-1.12499975 6.730468-1.12499975 13.460937-1.12499975zm0 0" fill="none" stroke="#fff" stroke-width="4" transform="translate(210.3221 143.2546)"/><path d="m1037.929688 142.988281h354.136718c6.730469 0 10.769532 0 13.457032 1.125 3.882812 1.410157 6.9375 4.46875 8.351562 8.347657 1.121094 2.691406 1.121094 6.730468 1.121094 13.457031v554.140625c0 6.730468 0 10.765625-1.121094 13.457031-1.414062 3.882813-4.46875 6.9375-8.351562 8.347656-2.6875 1.125-6.726563 1.125-13.457032 1.125h-354.136718c-6.730469 0-10.769532 0-13.460938-1.125-3.878906-1.410156-6.9375-4.464843-8.347656-8.347656-1.125-2.691406-1.125-6.726563-1.125-13.457031v-554.140625c0-6.726563 0-10.765625 1.125-13.457031 1.410156-3.878907 4.46875-6.9375 8.347656-8.347657 2.691406-1.125 6.730469-1.125 13.460938-1.125zm0 0" fill="#6baed6"/><path d="m22.931687-.00061875h354.136719c6.730469 0 10.769531 0 13.460938 1.12499975 3.878906 1.410156 6.933593 4.46875 8.347656 8.347656 1.121094 2.691407 1.121094 6.730469 1.121094 13.457032v554.140625c0 6.730468 0 10.765625-1.121094 13.457031-1.414063 3.882812-4.46875 6.9375-8.347656 8.347656-2.691407 1.125-6.730469 1.125-13.460938 1.125h-354.136719c-6.730468 0-10.769531 0-13.460937-1.125-3.878906-1.410156-6.933594-4.464844-8.347656-8.347656-1.12500025-2.691406-1.12500025-6.726563-1.12500025-13.457031v-554.140625c0-6.726563 0-10.765625 1.12500025-13.457032 1.414062-3.878906 4.46875-6.9375 8.347656-8.347656 2.691406-1.12499975 6.730469-1.12499975 13.460937-1.12499975zm0 0" fill="none" stroke="#fff" stroke-width="4" transform="translate(1014.998 142.9889)"/><path d="m170.712094 29.288656c39.050781 39.054688 39.050781 102.371094 0 141.421875-39.054688 39.050782-102.371094 39.050782-141.421875 0-39.054688-39.050781-39.054688-102.367187 0-141.421875 39.050781-39.050781 102.367187-39.050781 141.421875 0zm0 0" fill="#fff" stroke="#000" stroke-width="4" transform="translate(108.159 343.2465)"/><use x="122.569" xlink:href="#a" y="453.925"/><use x="144.229" xlink:href="#b" y="453.925"/><use x="160.909" xlink:href="#c" y="453.925"/><use x="170.899" xlink:href="#b" y="453.925"/><use x="187.579" xlink:href="#d" y="453.925"/><use x="195.919" xlink:href="#e" y="453.925"/><use x="215.359" xlink:href="#f" y="453.925"/><use x="233.149" xlink:href="#g" y="453.925"/><use x="250.369" xlink:href="#h" y="453.925"/><use x="260.389" xlink:href="#i" y="453.925"/><use x="277.069" xlink:href="#j" y="453.925"/><path d="m170.711219 29.289675c39.050781 39.050781 39.050781 102.367187 0 141.421875-39.054688 39.050781-102.371094 39.050781-141.421875 0-39.050781-39.054688-39.050781-102.371094 0-141.421875 39.050781-39.054688 102.367187-39.054688 141.421875 0zm0 0" fill="#fff" stroke="#000" stroke-width="4" transform="translate(511.488 343.3822)"/><use x="578.983" xlink:href="#a" y="436.1584"/><use x="600.643" xlink:href="#b" y="436.1584"/><use x="617.323" xlink:href="#c" y="436.1584"/><use x="627.313" xlink:href="#b" y="436.1584"/><use x="643.993" xlink:href="#d" y="436.1584"/><use x="527.863" xlink:href="#k" y="473.1584"/><use x="549.523" xlink:href="#b" y="473.1584"/><use x="566.203" xlink:href="#h" y="473.1584"/><use x="576.763" xlink:href="#l" y="473.1584"/><use x="602.863" xlink:href="#f" y="473.1584"/><use x="620.653" xlink:href="#m" y="473.1584"/><use x="637.873" xlink:href="#n" y="473.1584"/><use x="645.103" xlink:href="#o" y="473.1584"/><use x="660.103" xlink:href="#j" y="473.1584"/><use x="676.783" xlink:href="#p" y="473.1584"/><path d="m1486.828125 372.671875c39.050781 39.050781 39.050781 102.367187 0 141.421875-39.054687 39.050781-102.367187 39.050781-141.421875 0-39.050781-39.054688-39.050781-102.371094 0-141.421875 39.054688-39.054687 102.367188-39.054687 141.421875 0zm0 0" fill="#fff"/><path d="m170.711125 29.289675c39.050781 39.050781 39.050781 102.367187 0 141.421875-39.054687 39.050781-102.371094 39.050781-141.421875 0-39.050781-39.054688-39.050781-102.371094 0-141.421875 39.050781-39.054688 102.367188-39.054688 141.421875 0zm0 0" fill="none" stroke="#000" stroke-width="4" transform="translate(1316.117 343.3822)"/><use x="1363.887" xlink:href="#q" y="399.0802"/><use x="1372.227" xlink:href="#m" y="399.0802"/><use x="1389.447" xlink:href="#c" y="399.0802"/><use x="1399.437" xlink:href="#j" y="399.0802"/><use x="1416.117" xlink:href="#h" y="399.0802"/><use x="1427.217" xlink:href="#m" y="399.0802"/><use x="1444.437" xlink:href="#b" y="399.0802"/><use x="1461.117" xlink:href="#r" y="399.0802"/><use x="1468.347" xlink:href="#d" y="399.0802"/><use x="1343.592" xlink:href="#a" y="436.0802"/><use x="1365.252" xlink:href="#s" y="436.0802"/><use x="1386.372" xlink:href="#d" y="436.0802"/><use x="1394.712" xlink:href="#t" y="436.0802"/><use x="1403.052" xlink:href="#e" y="436.0802"/><use x="1422.492" xlink:href="#n" y="436.0802"/><use x="1429.722" xlink:href="#m" y="436.0802"/><use x="1446.942" xlink:href="#u" y="436.0802"/><use x="1464.732" xlink:href="#r" y="436.0802"/><use x="1471.962" xlink:href="#j" y="436.0802"/><use x="1488.642" xlink:href="#d" y="436.0802"/><use x="1349.412" xlink:href="#e" y="473.0802"/><use x="1368.852" xlink:href="#f" y="473.0802"/><use x="1386.642" xlink:href="#g" y="473.0802"/><use x="1403.862" xlink:href="#h" y="473.0802"/><use x="1413.882" xlink:href="#i" y="473.0802"/><use x="1430.562" xlink:href="#j" y="473.0802"/><use x="1447.242" xlink:href="#d" y="473.0802"/><use x="1455.582" xlink:href="#f" y="473.0802"/><use x="1473.372" xlink:href="#v" y="473.0802"/><use x="1482.822" xlink:href="#d" y="473.0802"/><use x="1376.937" xlink:href="#w" y="510.0802"/><use x="1391.967" xlink:href="#h" y="510.0802"/><use x="1402.527" xlink:href="#g" y="510.0802"/><use x="1419.747" xlink:href="#c" y="510.0802"/><use x="1429.737" xlink:href="#x" y="510.0802"/><use x="1446.957" xlink:href="#y" y="510.0802"/><path d="m1083.457031 372.671875c39.054688 39.050781 39.054688 102.367187 0 141.421875-39.050781 39.050781-102.367187 39.050781-141.421875 0-39.050781-39.054688-39.050781-102.371094 0-141.421875 39.054688-39.054687 102.371094-39.054687 141.421875 0zm0 0" fill="#fff"/><path d="m170.709231 29.289675c39.054688 39.050781 39.054688 102.367187 0 141.421875-39.050781 39.050781-102.367187 39.050781-141.417968 0-39.054688-39.054688-39.054688-102.371094 0-141.421875 39.050781-39.054688 102.367187-39.054688 141.417968 0zm0 0" fill="none" stroke="#000" stroke-width="4" transform="translate(912.7478 343.3822)"/><use x="980.2428" xlink:href="#a" y="435.799"/><use x="1001.9028" xlink:href="#b" y="435.799"/><use x="1018.5828" xlink:href="#c" y="435.799"/><use x="1028.5728" xlink:href="#b" y="435.799"/><use x="1045.2528" xlink:href="#d" y="435.799"/><use x="955.5078" xlink:href="#z" y="472.799"/><use x="977.1678" xlink:href="#r" y="472.799"/><use x="984.3978" xlink:href="#j" y="472.799"/><use x="1001.0778" xlink:href="#b" y="472.799"/><use x="1017.7578" xlink:href="#m" y="472.799"/><use x="1034.9778" xlink:href="#j" y="472.799"/><use x="1051.6578" xlink:href="#p" y="472.799"/><use x="267.7141" xlink:href="#A" y="188.5625"/><use x="294.4021" xlink:href="#B" y="188.5625"/><use x="307.7461" xlink:href="#C" y="188.5625"/><use x="321.0901" xlink:href="#D" y="188.5625"/><use x="356.6581" xlink:href="#E" y="188.5625"/><use x="385.9861" xlink:href="#F" y="188.5625"/><use x="398.3701" xlink:href="#F" y="188.5625"/><use x="410.7541" xlink:href="#G" y="188.5625"/><use x="438.3061" xlink:href="#H" y="188.5625"/><use x="465.8581" xlink:href="#I" y="188.5625"/><use x="482.7541" xlink:href="#J" y="188.5625"/><use x="495.1381" xlink:href="#E" y="188.5625"/><use x="524.4661" xlink:href="#K" y="188.5625"/><use x="552.9301" xlink:href="#C" y="188.5625"/><use x="242.8261" xlink:href="#L" y="246.5625"/><use x="278.3941" xlink:href="#M" y="246.5625"/><use x="305.9461" xlink:href="#N" y="246.5625"/><use x="324.6181" xlink:href="#O" y="246.5625"/><use x="368.1061" xlink:href="#E" y="246.5625"/><use x="397.4341" xlink:href="#K" y="246.5625"/><use x="425.8981" xlink:href="#J" y="246.5625"/><use x="438.2821" xlink:href="#P" y="246.5625"/><use x="463.1941" xlink:href="#M" y="246.5625"/><use x="490.7461" xlink:href="#I" y="246.5625"/><use x="507.6421" xlink:href="#J" y="246.5625"/><use x="520.0261" xlink:href="#E" y="246.5625"/><use x="549.3541" xlink:href="#K" y="246.5625"/><use x="667.0201" xlink:href="#Q" y="188.5625"/><use x="693.7081" xlink:href="#B" y="188.5625"/><use x="707.0521" xlink:href="#A" y="188.5625"/><use x="733.7401" xlink:href="#B" y="188.5625"/><use x="747.0841" xlink:href="#C" y="188.5625"/><use x="760.4281" xlink:href="#D" y="188.5625"/><use x="795.9961" xlink:href="#R" y="188.5625"/><use x="824.4601" xlink:href="#N" y="188.5625"/><use x="843.1321" xlink:href="#M" y="188.5625"/><use x="870.6841" xlink:href="#I" y="188.5625"/><use x="887.5801" xlink:href="#J" y="188.5625"/><use x="899.9641" xlink:href="#E" y="188.5625"/><use x="929.2921" xlink:href="#K" y="188.5625"/><use x="957.7561" xlink:href="#C" y="188.5625"/><use x="711.5401" xlink:href="#D" y="246.5625"/><use x="747.1081" xlink:href="#F" y="246.5625"/><use x="759.4921" xlink:href="#G" y="246.5625"/><use x="787.0441" xlink:href="#M" y="246.5625"/><use x="814.5961" xlink:href="#K" y="246.5625"/><use x="843.0601" xlink:href="#J" y="246.5625"/><use x="855.4441" xlink:href="#K" y="246.5625"/><use x="883.9081" xlink:href="#S" y="246.5625"/><use x="1071.111" xlink:href="#Q" y="188.5625"/><use x="1097.799" xlink:href="#B" y="188.5625"/><use x="1111.143" xlink:href="#Q" y="188.5625"/><use x="1137.831" xlink:href="#B" y="188.5625"/><use x="1151.175" xlink:href="#C" y="188.5625"/><use x="1164.519" xlink:href="#D" y="188.5625"/><use x="1200.087" xlink:href="#R" y="188.5625"/><use x="1228.551" xlink:href="#N" y="188.5625"/><use x="1247.223" xlink:href="#M" y="188.5625"/><use x="1274.775" xlink:href="#I" y="188.5625"/><use x="1291.671" xlink:href="#J" y="188.5625"/><use x="1304.055" xlink:href="#E" y="188.5625"/><use x="1333.383" xlink:href="#K" y="188.5625"/><use x="1361.847" xlink:href="#C" y="188.5625"/><use x="1104.543" xlink:href="#T" y="246.5625"/><use x="1132.143" xlink:href="#M" y="246.5625"/><use x="1159.695" xlink:href="#F" y="246.5625"/><use x="1172.079" xlink:href="#J" y="246.5625"/><use x="1184.463" xlink:href="#U" y="246.5625"/><use x="1213.791" xlink:href="#M" y="246.5625"/><use x="1241.343" xlink:href="#I" y="246.5625"/><use x="1258.239" xlink:href="#J" y="246.5625"/><use x="1270.623" xlink:href="#E" y="246.5625"/><use x="1299.951" xlink:href="#K" y="246.5625"/><path d="m.00015-.0007h325.175781" fill="none" stroke="#fff" stroke-width="4" transform="translate(248.3436 258.8132)"/><path d="m69.759131-.00179375c-2.378906 0-4.753906.90624975-6.570312 2.71874975-3.625 3.625-3.625 9.507813 0 13.136719l16.980468 16.976563h-70.886718c-5.125 0-9.28125025 4.15625-9.28125025 9.285156s4.15625025 9.285156 9.28125025 9.285156h70.886718l-16.980468 16.976563c-3.625 3.628906-3.625 9.511718 0 13.136718 1.8125 1.8125 4.191406 2.714844 6.570312 2.714844 2.375 0 4.753906-.902344 6.566406-2.714844l32.824219-32.832031c1.8125-1.8125 2.722656-4.191406 2.722656-6.566406s-.910156-4.753906-2.722656-6.566406l-32.824219-32.832032c-1.8125-1.8125-4.191406-2.71874975-6.566406-2.71874975zm0 0" fill="#fff" stroke="#000" stroke-width="2" transform="translate(354.3854 401.3807)"/><use x="742.6121" xlink:href="#V" y="339.8674"/><use x="760.7841" xlink:href="#W" y="339.8674"/><use x="770.6401" xlink:href="#X" y="339.8674"/><use x="781.5321" xlink:href="#Y" y="339.8674"/><use x="798.1361" xlink:href="#Z" y="339.8674"/><use x="814.2081" xlink:href="#W" y="339.8674"/><use x="824.0641" xlink:href="#Y" y="339.8674"/><use x="840.6681" xlink:href="#X" y="339.8674"/><use x="851.0561" xlink:href="#aa" y="339.8674"/><use x="867.1281" xlink:href="#ab" y="339.8674"/><use x="740.2181" xlink:href="#ac" y="454.0139"/><use x="762.0021" xlink:href="#X" y="454.0139"/><use x="772.1101" xlink:href="#ad" y="454.0139"/><use x="789.2181" xlink:href="#ae" y="454.0139"/><use x="805.2901" xlink:href="#af" y="454.0139"/><use x="821.8941" xlink:href="#ag" y="454.0139"/><use x="829.1181" xlink:href="#ab" y="454.0139"/><use x="844.1541" xlink:href="#ah" y="454.0139"/><use x="869.5221" xlink:href="#ab" y="454.0139"/><use x="736.4241" xlink:href="#ai" y="568.1604"/><use x="756.6401" xlink:href="#aa" y="568.1604"/><use x="772.7121" xlink:href="#aj" y="568.1604"/><use x="782.0361" xlink:href="#aa" y="568.1604"/><use x="798.1081" xlink:href="#X" y="568.1604"/><use x="808.4961" xlink:href="#aa" y="568.1604"/><use x="824.5681" xlink:href="#af" y="568.1604"/><use x="841.1721" xlink:href="#Z" y="568.1604"/><use x="857.2441" xlink:href="#aa" y="568.1604"/><use x="873.3161" xlink:href="#ab" y="568.1604"/><path d="m18.411089-.00198874c-.627005.00276214-1.256772.24030574-1.734621.71815574-.955699.955699-.958461 2.510781 0 3.469242l4.480184 4.480184h-18.705184c-1.353446 0-2.45001401 1.096568-2.45001401 2.450015 0 1.353446 1.09656801 2.450014 2.45001401 2.450014h18.705184l-4.480184 4.480185c-.955699.955699-.958461 2.510781 0 3.469242.477849.47785 1.107616.715393 1.731859.715393.629767 0 1.256772-.240306 1.734621-.718155l8.66482-8.66482c.47785-.47785.718155-1.104854.718155-1.734621 0-.624243-.240305-1.251248-.720917-1.731859l-8.659296-8.66482c-.477849-.47785-1.107616-.7153936-1.734621-.71815574zm0 0" fill="#fff" stroke="#000" stroke-width=".5" transform="matrix(.707107 .707107 -.707107 .707107 904.4253 340.7953)"/><path d="m901.722656 521.300781c-.441406.445313-.71875 1.058594-.71875 1.734375 0 1.355469 1.101563 2.453125 2.453125 2.453125h6.335938l-13.226563 13.226563c-.957031.957031-.957031 2.507812 0 3.464844.957032.957031 2.507813.957031 3.464844 0l13.226562-13.226563v6.335937c0 1.355469 1.101563 2.453126 2.453126 2.453126.675781 0 1.289062-.277344 1.734374-.71875.441407-.445313.71875-1.058594.71875-1.734376l-.003906-12.253906c0-.675781-.273437-1.289062-.714844-1.734375-.445312-.441406-1.058593-.714843-1.734374-.714843l-12.253907-.003907c-.675781 0-1.289062.277344-1.734375.71875zm0 0" fill="#fff"/><path d="m18.408088.00010165c-.624242 0-1.254009.23754335-1.731859.71539335-.958461.958461-.955699 2.513543 0 3.469242l4.480184 4.480185h-18.705183c-1.353447 0-2.45001466 1.096568-2.45001466 2.450014 0 1.353447 1.09656766 2.450015 2.45001466 2.450015h18.705183l-4.480184 4.480184c-.958461.958461-.955699 2.513543 0 3.469242.47785.47785 1.107617.715393 1.734621.718156.627005-.002763 1.256772-.240306 1.734622-.718156l8.662057-8.667582c.47785-.477849.718156-1.104854.718156-1.729097 0-.629767-.240306-1.256772-.718156-1.734621l-8.662057-8.667582c-.47785-.47785-1.107617-.71539335-1.737384-.71539335zm0 0" fill="none" stroke="#000" stroke-width=".5" transform="matrix(.707107 -.707107 .707107 .707107 888.7061 534.3211)"/><path d="m720.789062 348.65625c-.441406.441406-.71875 1.054688-.71875 1.730469 0 1.355469 1.097657 2.453125 2.453126 2.453125h6.335937l-13.230469 13.230468c-.957031.957032-.957031 2.507813 0 3.464844.957032.957032 2.511719.957032 3.464844 0l13.230469-13.230468v6.335937c0 1.355469 1.097656 2.453125 2.453125 2.453125.675781 0 1.289062-.273438 1.730468-.71875.445313-.445312.71875-1.054688.71875-1.734375v-12.25c0-.675781-.273437-1.292969-.71875-1.734375-.441406-.445312-1.058593-.71875-1.734374-.71875h-12.25c-.679688 0-1.289063.273438-1.734376.71875zm0 0" fill="#fff"/><path d="m18.410311.00015026c-.624242 0-1.254009.23754374-1.731859.71539274-.958461.958462-.958461 2.510782 0 3.469243l4.480184 4.480184h-18.710708c-1.353446 0-2.45001396 1.096568-2.45001396 2.450015 0 1.353446 1.09932996 2.452776 2.45277696 2.452776l18.707945-.002762-4.480184 4.480184c-.958461.958461-.958461 2.510782 0 3.469243.47785.477849 1.104854.718155 1.731859.715393.629767 0 1.25401-.237544 1.734621-.718155l8.662058-8.662058c.47785-.47785.720918-1.107616.718156-1.734621.002762-.627005-.240306-1.256772-.718156-1.734622l-8.662058-8.662057c-.480611-.480612-1.104854-.71815574-1.734621-.71815574zm0 0" fill="none" stroke="#000" stroke-width=".5" transform="matrix(.707107 -.707107 .707107 .707107 707.7709 361.6742)"/><path d="m18.40952-.00008397c-.624243 0-1.25401.23754397-1.731859.71539297-.958461.958461-.958461 2.510782 0 3.469243l4.480184 4.480184h-18.705183c-1.353447 0-2.45277691 1.09933-2.45277691 2.452777 0 1.353446 1.09656791 2.450014 2.45001491 2.450014l18.707945-.002762-4.480184 4.480184c-.958461.958461-.958461 2.510782 0 3.469243.477849.477849 1.107616.715393 1.731859.715393.629767 0 1.25401-.237544 1.734621-.718155l8.662058-8.662058c.47785-.47785.720918-1.107617.718156-1.734622.002762-.627004-.237544-1.254009-.718156-1.734621l-8.662058-8.662058c-.477849-.477849-1.104854-.71815497-1.734621-.71815497zm0 0" fill="#fff" stroke="#000" stroke-width=".5" transform="matrix(.707107 .707107 -.707107 .707107 723.2051 513.756)"/><use x="257.0525" xlink:href="#ac" y="678.7918"/><use x="278.8365" xlink:href="#ak" y="678.7918"/><use x="295.9445" xlink:href="#aa" y="678.7918"/><use x="312.0165" xlink:href="#af" y="678.7918"/><use x="328.6205" xlink:href="#al" y="678.7918"/><use x="336.4045" xlink:href="#am" y="678.7918"/><use x="357.1525" xlink:href="#ae" y="678.7918"/><use x="373.2245" xlink:href="#W" y="678.7918"/><use x="383.0805" xlink:href="#Y" y="678.7918"/><use x="399.6845" xlink:href="#X" y="678.7918"/><use x="410.5765" xlink:href="#ae" y="678.7918"/><use x="426.6485" xlink:href="#an" y="678.7918"/><use x="433.8725" xlink:href="#al" y="678.7918"/><use x="441.6565" xlink:href="#ao" y="678.7918"/><use x="460.3325" xlink:href="#X" y="678.7918"/><use x="470.7205" xlink:href="#ap" y="678.7918"/><use x="487.8285" xlink:href="#aq" y="678.7918"/><use x="504.9365" xlink:href="#Y" y="678.7918"/><use x="521.5405" xlink:href="#Z" y="678.7918"/><use x="537.6125" xlink:href="#W" y="678.7918"/><use x="547.4685" xlink:href="#ab" y="678.7918"/><use x="562.5045" xlink:href="#al" y="678.7918"/><use x="570.2885" xlink:href="#al" y="678.7918"/><use x="338.7425" xlink:href="#ar" y="712.7918"/><use x="359.4905" xlink:href="#ae" y="712.7918"/><use x="375.5625" xlink:href="#W" y="712.7918"/><use x="385.4185" xlink:href="#ae" y="712.7918"/><use x="401.4905" xlink:href="#as" y="712.7918"/><use x="418.5985" xlink:href="#ae" y="712.7918"/><use x="434.6705" xlink:href="#ab" y="712.7918"/><use x="449.7065" xlink:href="#aa" y="712.7918"/><use x="465.7785" xlink:href="#ab" y="712.7918"/><use x="733.9863" xlink:href="#at" y="661.7918"/><use x="748.5183" xlink:href="#X" y="661.7918"/><use x="759.4103" xlink:href="#ae" y="661.7918"/><use x="775.4823" xlink:href="#af" y="661.7918"/><use x="792.0863" xlink:href="#ab" y="661.7918"/><use x="807.1223" xlink:href="#an" y="661.7918"/><use x="814.3463" xlink:href="#ae" y="661.7918"/><use x="830.4183" xlink:href="#W" y="661.7918"/><use x="840.2743" xlink:href="#ag" y="661.7918"/><use x="847.4983" xlink:href="#ap" y="661.7918"/><use x="864.6063" xlink:href="#af" y="661.7918"/><use x="881.2103" xlink:href="#al" y="661.7918"/><use x="748.7703" xlink:href="#au" y="695.7918"/><use x="769.5183" xlink:href="#an" y="695.7918"/><use x="776.7423" xlink:href="#aa" y="695.7918"/><use x="792.8143" xlink:href="#ae" y="695.7918"/><use x="808.8863" xlink:href="#af" y="695.7918"/><use x="825.4903" xlink:href="#ag" y="695.7918"/><use x="832.7143" xlink:href="#af" y="695.7918"/><use x="849.3183" xlink:href="#ad" y="695.7918"/><use x="866.4263" xlink:href="#al" y="695.7918"/><use x="715.0863" xlink:href="#ar" y="729.7918"/><use x="735.8343" xlink:href="#aa" y="729.7918"/><use x="751.9063" xlink:href="#aq" y="729.7918"/><use x="769.0143" xlink:href="#Y" y="729.7918"/><use x="785.6183" xlink:href="#ak" y="729.7918"/><use x="802.7263" xlink:href="#an" y="729.7918"/><use x="809.9503" xlink:href="#ag" y="729.7918"/><use x="817.1743" xlink:href="#Z" y="729.7918"/><use x="833.2463" xlink:href="#ae" y="729.7918"/><use x="849.3183" xlink:href="#W" y="729.7918"/><use x="859.1743" xlink:href="#ag" y="729.7918"/><use x="866.3983" xlink:href="#ap" y="729.7918"/><use x="883.5063" xlink:href="#af" y="729.7918"/><use x="1072.198" xlink:href="#av" y="678.4578"/><use x="1091.378" xlink:href="#Y" y="678.4578"/><use x="1107.982" xlink:href="#W" y="678.4578"/><use x="1117.838" xlink:href="#ap" y="678.4578"/><use x="1134.946" xlink:href="#ah" y="678.4578"/><use x="1160.314" xlink:href="#ae" y="678.4578"/><use x="1176.386" xlink:href="#W" y="678.4578"/><use x="1186.242" xlink:href="#aa" y="678.4578"/><use x="1202.314" xlink:href="#aq" y="678.4578"/><use x="1219.422" xlink:href="#al" y="678.4578"/><use x="1227.206" xlink:href="#aw" y="678.4578"/><use x="1243.306" xlink:href="#ae" y="678.4578"/><use x="1259.378" xlink:href="#an" y="678.4578"/><use x="1266.602" xlink:href="#ag" y="678.4578"/><use x="1273.826" xlink:href="#aq" y="678.4578"/><use x="1290.934" xlink:href="#ae" y="678.4578"/><use x="1307.006" xlink:href="#W" y="678.4578"/><use x="1316.862" xlink:href="#ag" y="678.4578"/><use x="1324.086" xlink:href="#ap" y="678.4578"/><use x="1341.194" xlink:href="#af" y="678.4578"/><use x="1357.798" xlink:href="#al" y="678.4578"/><use x="1177.422" xlink:href="#ai" y="712.4578"/><use x="1197.638" xlink:href="#Y" y="712.4578"/><use x="1214.242" xlink:href="#an" y="712.4578"/><use x="1221.466" xlink:href="#aa" y="712.4578"/><use x="1237.538" xlink:href="#ab" y="712.4578"/><path d="m.00110625.000925h325.17578175" fill="none" stroke="#fff" stroke-width="4" transform="translate(247.1903 628.3272)"/><path d="m69.759313-.00179375c-2.378907 0-4.757813.90624975-6.570313 2.71874975-3.625 3.625-3.625 9.507813 0 13.136719l16.980469 16.976563h-70.886719c-5.125 0-9.28125 4.15625-9.28125 9.285156s4.15625 9.285156 9.28125 9.285156h70.886719l-16.980469 16.976563c-3.625 3.628906-3.625 9.511718 0 13.136718 1.8125 1.8125 4.191406 2.714844 6.570313 2.714844 2.375 0 4.753906-.902344 6.566406-2.714844l32.824219-32.832031c1.8125-1.8125 2.722656-4.191406 2.722656-6.566406s-.910156-4.753906-2.722656-6.566406l-32.824219-32.832032c-1.8125-1.8125-4.191406-2.71874975-6.566406-2.71874975zm0 0" fill="#fff" stroke="#000" stroke-width="2" transform="translate(1159.061 401.3807)"/><g fill="none" stroke="#fff" stroke-width="4"><path d="m.00088125-.0004375h325.17578075" transform="translate(649.7999 258.6645)"/><path d="m.00115625-.0004375h325.17578075" transform="translate(1052.409 258.6645)"/><path d="m.00088125.000925h325.17578075" transform="translate(649.7999 628.3272)"/><path d="m.00115625.000925h325.17578075" transform="translate(1052.409 628.3272)"/></g></svg>